<?xml version="1.0" standalone="no"?>
<!DOCTYPE svg PUBLIC "-//W3C//DTD SVG 1.1//EN" "http://www.w3.org/Graphics/SVG/1.1/DTD/svg11.dtd" >
<svg xmlns="http://www.w3.org/2000/svg" xmlns:xlink="http://www.w3.org/1999/xlink" version="1.1">
<metadata></metadata>
<defs>
<font id="gothiceregular" horiz-adv-x="1303" >
<font-face units-per-em="2048" ascent="1638" descent="-410" />
<missing-glyph horiz-adv-x="1518" />
<glyph unicode=" "  horiz-adv-x="1518" />
<glyph unicode="&#x09;" horiz-adv-x="1518" />
<glyph unicode="&#xa0;" horiz-adv-x="1518" />
<glyph unicode="!" horiz-adv-x="873" d="M328 1378q35 17 77 38.5t93 47.5q3 2 23.5 22t58.5 58q68 -68 113 -95q5 -4 39.5 -21.5t99.5 -49.5l-164 -82l-72 -780h-33l-71 780zM408 84l172 170l172 -170l-172 -85z" />
<glyph unicode="&#x22;" horiz-adv-x="1375" d="M414 1665l170 172l84 -168v-151l-76 -152l-147 -74l-17 29l135 68v127zM916 1665l170 172l84 -168v-151l-76 -152l-148 -74l-16 29l135 68v127z" />
<glyph unicode="#" horiz-adv-x="1590" d="M348 287v104h291l82 326h-301v104h326l180 717h104l-178 -717h324l180 717h104l-178 -717h246v-104h-272l-82 -326h282v-104h-309l-196 -788h-105l197 788h-326l-197 -788h-104l197 788h-265zM744 391h325l82 326h-325z" />
<glyph unicode="$" horiz-adv-x="1446" d="M348 299v164h177v-176h-105v88h33v-56h39v111h-111v-123q13 -26 30 -60.5t40 -76.5q6 -9 65 -68l191 -63v731q-16 5 -31.5 10.5t-32.5 10.5l-219 147l-76 149v226l152 151l207 70v274h33v-270h254v270h32v-274l207 -70q37 -36 78 -75q14 -29 32.5 -66.5t41.5 -83.5v-164 h-176v176h104v-88h-33v56h-39v-111h111v123q-13 26 -30 60.5t-40 76.5q-6 9 -65 68l-191 63v-659q16 -5 31.5 -10.5t32.5 -10.5l219 -147l76 -150v-223q-14 -29 -32.5 -66.5t-41.5 -82.5l-72 -72l-2 -4l-211 -70v-273h-32v269h-254v-269h-33v273l-207 70q-19 18 -38.5 37 t-39.5 39q-14 29 -32.5 66zM453 1167l67 -135q34 -19 80.5 -40t106.5 -46v553l-187 -63l-67 -133v-136zM740 33h254v641l-254 84v-725zM740 936l254 -84v653h-254v-569zM1026 39l187 63l67 134v206l-67 136q-34 19 -80.5 40t-106.5 46v-625z" />
<glyph unicode="%" horiz-adv-x="1590" d="M133 1157v154l76 153l225 74h150q56 -32 145 -74q4 -2 31.5 -11t79.5 -26l100 -32h209l354 143h115l-1317 -1538h-114l1247 1456l-277 -166h-223l-123 82v-141l-76 -154q-54 -17 -109.5 -35.5t-115.5 -37.5h-149q-31 14 -68 32t-82 41zM309 1167l66 -131h127q57 57 77 89 q14 29 28 57t28 57v135l-65 131h-127q-63 -63 -64 -65q-3 -5 -20.5 -39t-49.5 -98v-136zM994 154v153l75 154q68 23 124 41.5t102 32.5h149q31 -14 68 -32.5t82 -41.5q17 -18 36.5 -38t40.5 -42v-154l-75 -153q-68 -23 -124 -41.5t-102 -32.5h-149q-31 14 -68 32.5t-82 41.5 q-17 18 -36.5 38t-40.5 42zM1170 164l65 -131h127q63 63 64 65l69 138v135l-65 131h-127q-54 -54 -76 -91q-2 -4 -16.5 -31.5t-40.5 -80.5v-135z" />
<glyph unicode="&#x26;" horiz-adv-x="1876" d="M342 377l430 428l-286 287l381 456l309 -387l-283 -282q20 -17 52 -51t77 -85l144 -190l417 418l78 -78h60l137 139l-78 -158q-5 -11 -15 -30.5t-24 -48.5l-80 -78h-84l-100 100l-291 -291q26 -32 74 -102t119 -180l137 -68h205l137 139l-78 -157q-5 -11 -15 -31t-24 -49 l-80 -78h-153l-50 25l-100 49q-4 3 -49 49l-96 98q-9 10 -45 66l-88 133l-431 -427zM459 444l266 -331l336 336l-90 135l-17 25.5t-28 41.5l-131 131zM602 1180l267 -277l190 191l-258 323z" />
<glyph unicode="'" horiz-adv-x="873" d="M414 1665l170 180l84 -176v-151l-76 -152l-147 -74l-17 29l135 68v127z" />
<glyph unicode="(" horiz-adv-x="1016" d="M348 516v291q0 28 9 61q4 14 7.5 28.5t8.5 31.5l47 241q2 4 6.5 13.5t12.5 25.5q8 17 15.5 31t14.5 27l96 192q7 12 48 72l96 143l145 148l25 -25l-141 -139l-95 -238q-7 -16 -18.5 -44.5t-28.5 -71.5l-47 -285q-3 -17 -15 -72q-9 -41 -9 -72v-425q0 -32 9 -72 q12 -56 15 -72l47 -285q2 -7 7.5 -24t15.5 -46q8 -27 25.5 -74t45.5 -115l48 -92l141 -141l-25 -25q-69 68 -145 148l-96 143q-14 19 -48 72l-96 191q-9 14 -21 38.5t-28 58.5l-47 241q-1 2 -4.5 17t-11.5 43q-9 33 -9 61z" />
<glyph unicode=")" horiz-adv-x="1016" d="M424 -472l141 141l48 92q8 17 26 64t45 125q4 10 9.5 27t13.5 43l47 285q3 16 15 72q9 40 9 72v425q0 31 -9 72q-12 55 -15 72l-47 285q-7 16 -18.5 44.5t-28.5 71.5l-95 238l-141 139l25 25l145 -148l96 -143q15 -18 48 -72l96 -192q9 -14 21 -38.5t28 -58.5l47 -241 q1 -2 4.5 -17t11.5 -43q9 -33 9 -61v-291q0 -28 -9 -61q-4 -14 -7.5 -28.5t-8.5 -31.5l-47 -241q-7 -13 -19 -37.5t-30 -59.5l-96 -191l-48 -72l-96 -143q-6 -9 -145 -148z" />
<glyph unicode="*" horiz-adv-x="1160" d="M348 860v98l330 134l-330 133v98h95l256 -193l-66 326l90 88l90 -88l-65 -326l256 193h94v-98l-330 -133l330 -134v-98h-94l-256 193l65 -326l-90 -88l-90 88l66 326l-256 -193h-95z" />
<glyph unicode="+" horiz-adv-x="1805" d="M420 645v105h574v573h104v-573h573v-105h-573v-573h-104v573h-574z" />
<glyph unicode="," horiz-adv-x="873" d="M414 88l170 172l84 -168v-150l-76 -152l-147 -74l-17 29l135 68v127z" />
<glyph unicode="-" horiz-adv-x="1805" d="M420 645v105h1251v-105h-1251z" />
<glyph unicode="." horiz-adv-x="873" d="M408 84l172 170l172 -170l-172 -85z" />
<glyph unicode="/" horiz-adv-x="1661" d="M264 -501l1309 2326h111l-1309 -2326h-111z" />
<glyph unicode="0" horiz-adv-x="1446" d="M223 143l197 99v1153h158l237 47q31 6 117 24q7 2 154 76l78 -78l36 -18t101 -51h209l-197 -99v-1153h-158l-237 -47q-32 -6 -117 -24q-5 -1 -154 -75l-77 77q-53 25 -138 69h-209zM596 242q27 -12 61 -29t76 -39l68 -68l336 68v1122q-27 12 -61 29t-76 39l-68 68 l-336 -68v-1122z" />
<glyph unicode="1" horiz-adv-x="1446" d="M582 143l196 99v917q-13 28 -30 62t-39 75l-84 84l248 166l82 -164v-1140l131 -66h137l-135 -67q-20 -11 -37 -19.5l-31 -15.5q-6 -5 -82 -79q-73 72 -96 86q-1 1 -31.5 16t-91.5 46h-137z" />
<glyph unicode="2" horiz-adv-x="1446" d="M348 -3v380q17 52 35.5 106.5t38.5 114.5l150 150q53 18 108 36t113 37h344v547l-193 76l7 -6l-74 -74l-150 -74h-151l-209 105h209q28 13 61.5 30t75.5 39q8 6 78 76l366 -145h156v-607h-516q-16 -5 -68 -22.5t-141 -46.5l-137 -137l-70 -209v-330l176 88q13 8 35 19.5 t53 25.5l195 47q5 1 16.5 5t31.5 11q25 9 48 9h219q22 -5 101 -25t217 -55l-172 -169l-221 73h-355q-26 -5 -119.5 -24t-257.5 -51z" />
<glyph unicode="3" horiz-adv-x="1446" d="M295 143l209 105h152q29 -14 66.5 -32.5t82.5 -41.5l66 -68l266 66v477q-102 29 -169 55t-101 48l-64 -33l-16 29l43 22l-43 21l16 28l64 -33q34 22 101 48t169 55v477l-266 66l-142 -142h-153l-209 105h137q28 13 61.5 30t75.5 39l78 78l51 -26l103 -50l188 -47 q13 -4 36 -10t58 -14h158v-535h-158q-8 -1 -211 -69q-7 -4 -17 -9l-24 -12q7 -5 17 -10l24 -12q45 -16 97.5 -33.5t113.5 -36.5h158v-535h-158q-13 -4 -36 -10t-58 -14l-188 -47l-103 -49l-51 -26l-78 77l-36 18t-101 51h-209z" />
<glyph unicode="4" horiz-adv-x="1446" d="M348 430v381l734 733l163 -162l-75 -151v-768h264l94 94v-221l-94 94h-264v-188l131 -66h137l-135 -67q-20 -11 -37 -19.5l-31 -15.5q-6 -5 -82 -79q-73 72 -96 86q-1 1 -31.5 16t-91.5 46h-137l197 99v188h-646zM525 463h469v948l-469 -469v-479z" />
<glyph unicode="5" horiz-adv-x="1446" d="M295 143l209 105h152q29 -14 66.5 -32.5t82.5 -41.5l66 -68l266 66v694l-131 66h-66l-286 -72h-234v678h916q-20 -22 -45 -47.5t-56 -54.5q-29 -14 -66.5 -32.5t-82.5 -41.5h-633v-469h196q22 0 48 9q11 4 22.5 7.5t24.5 8.5l188 47l94 45q21 10 45 24l56 53l26 27 q38 -38 58.5 -58t23.5 -22l36 -18t101 -51h138l-197 -99v-723h-158q-13 -4 -36 -10t-58 -14l-188 -47l-103 -49l-51 -26l-78 77l-36 18t-101 51h-209z" />
<glyph unicode="6" horiz-adv-x="1446" d="M223 143l197 99v1153h158q13 4 36 10t58 14l188 47l154 76l78 -78l36 -18t101 -51h137l-209 -105h-153l-142 142l-266 -66v-545h53l189 47q18 5 41.5 11t52.5 14l94 45q15 7 26 13.5t19 11.5l56 53l26 26q71 -71 97 -87q8 -7 122 -62h138l-197 -98v-652h-158l-237 -47 q-32 -6 -117 -24q-5 -1 -154 -75l-77 77q-53 25 -138 69h-209zM596 242q27 -12 61 -29t76 -39l68 -68l336 68v621l-131 65h-66l-286 -72h-58v-546z" />
<glyph unicode="7" horiz-adv-x="1446" d="M332 1370l172 170l221 -74h355q-7 0 18.5 4.5t83.5 12.5l205 30q11 5 22 11t23 12l39 -10l-107 -201q-7 -16 -20 -41t-33 -59q-10 -10 -28.5 -28t-45.5 -44l-143 -143q-2 -2 -19.5 -28.5t-51.5 -77.5l-70 -107l-48 -140q-22 -63 -22 -69v-211q17 -52 35.5 -106.5 t38.5 -114.5l-168 -169l-82 242v220q3 10 24 73l50 148q1 2 12.5 19.5t34.5 51.5l98 146q5 7 80 67q63 49 63 76v2l144 142q10 9 27 27t42 44l127 240l-12 -2l-158 -80q-26 -16 -80 -41l-194 -47q-5 -1 -16.5 -5t-31.5 -11q-26 -9 -48 -9h-220q-22 5 -100.5 25t-216.5 55z " />
<glyph unicode="8" horiz-adv-x="1446" d="M223 143l197 99v436h158l241 92l-241 90h-158v463h158q27 6 57 12t62 13l235 47l140 70q6 4 81 79q38 -38 58.5 -58t23.5 -22l36 -18t101 -51h138l-197 -99v-436h-158l-241 -90l241 -92h158v-535h-158l-237 -47q-32 -6 -117 -24q-5 -1 -154 -75l-77 77q-53 25 -138 69 h-209zM596 242q27 -12 61 -29t76 -39l68 -68l336 68v475l-270 103l-271 -103v-407zM596 889l271 -103l270 103v407l-131 66h-66l-344 -70v-403z" />
<glyph unicode="9" horiz-adv-x="1446" d="M223 645l197 98v652h158l237 47q31 6 117 24q7 2 154 76l78 -78l36 -18t101 -51h209l-197 -99v-1153h-158q-13 -4 -36 -10t-58 -14l-188 -47l-103 -49l-51 -26l-78 77l-36 18t-101 51h-209l209 105h152q29 -14 66.5 -32.5t82.5 -41.5l66 -68l266 66v541l-336 -68 l-139 -70q-11 -8 -82 -79q-71 71 -97 87q-8 7 -122 62h-138zM596 743l131 -65h66l344 70v548q-27 12 -61 29t-76 39l-68 68l-336 -68v-621z" />
<glyph unicode=":" horiz-adv-x="873" d="M408 84l172 170l172 -170l-172 -85zM408 872l172 170l172 -170l-172 -86z" />
<glyph unicode=";" horiz-adv-x="873" d="M408 872l172 170l172 -170l-172 -86zM414 88l170 172l84 -168v-150l-76 -152l-147 -74l-17 29l135 68v127z" />
<glyph unicode="&#x3c;" horiz-adv-x="1733" d="M404 662l1196 673v-110l-987 -563l987 -564v-109z" />
<glyph unicode="=" horiz-adv-x="1805" d="M420 358v105h1251v-105h-1251zM420 932v104h1251v-104h-1251z" />
<glyph unicode="&#x3e;" horiz-adv-x="1733" d="M420 -11v109l987 564l-987 563v110l1196 -673z" />
<glyph unicode="?" d="M342 1227q15 33 35 73.5t45 88.5q34 34 78 75l221 74h150q2 -1 56 -19.5t163 -54.5q37 -36 78 -75q14 -29 32 -66.5t41 -83.5v-152l-73 -149l-148 -147q-11 -5 -45.5 -23t-93.5 -47l-86 -254l-94 283h159q29 29 63.5 63t72.5 74q5 11 22.5 45t46.5 92v279l-67 135 l-136 67h-135l-135 -67l-67 -135v-166zM623 84l172 170l172 -170l-172 -85z" />
<glyph unicode="@" horiz-adv-x="2020" d="M348 659v220l50 145q3 10 9 28.5t15 45.5q1 4 72 147l49 49l98 99l148 73q13 3 37 9t59 14l192 49h154l191 -49q13 -2 37 -8t59 -15q31 -15 67.5 -33t79.5 -40l99 -99q8 -8 20.5 -20t28.5 -29l71 -147q4 -10 10 -28.5t15 -45.5l49 -145v-222l-24 -49l-50 -100l-75 -76 q-27 -14 -62 -31t-80 -39l-2 -4h-88l-4 2q-29 14 -64.5 31.5t-78.5 40.5l-78 80v8l-43 -86l-152 -76h-153l-4 2q-59 25 -144 72l-75 76q-14 29 -32.5 66l-41.5 83v150q17 52 35.5 106.5t38.5 114.5l77 78l217 74h154l154 -76l24 -76l19 152h176l-74 -727l61 -62h56l137 275 v208l-47 142q-3 10 -9 27t-14 42q-1 2 -18.5 36.5l-52.5 103.5l-92 94q-23 24 -48 45l-280 141h-135l-95 -47l-186 -94q-12 -9 -47 -45l-92 -94l-72 -140q-2 -10 -8 -27t-14 -42l-47 -142v-210l47 -142q3 -9 8.5 -26t13.5 -43q1 -2 72 -140l92 -94q6 -6 18 -17t29 -28 l281 -141h137q7 2 24 7t46 15l141 47l92 48q17 7 47 24l47 45l23 25l24 -25q-17 -18 -35.5 -36.5l-37.5 -37.5q-23 -14 -59.5 -32t-88.5 -39q-76 -31 -130.5 -49t-88.5 -25h-152l-190 49q-13 2 -37 8t-59 15q-31 15 -68 33t-80 40l-98 99q-8 8 -20.5 20t-28.5 29l-72 147 q-5 19 -11 37t-13 37zM883 594q13 -26 30 -60.5t40 -76.5q6 -9 63 -66h133l135 68l68 135q1 4 5 34t11 87l29 237l-43 127l-133 68h-133l-135 -135l-70 -209v-209z" />
<glyph unicode="A" horiz-adv-x="1590" d="M88 -19l131 128q8 9 24.5 25.5l39.5 39.5l149 74h66l301 702l-18 -10l-68 135h-127l-66 -67l-24 24l74 74q29 14 66 32.5l83 41.5h82l68 -66l47 111l-64 143l-63 66h-131l-138 -140l-24 25l151 147l144 72h153l80 -78l502 -1147l63 -65h168l-165 -248h-86l-80 78 l-219 495h-535l-139 -325h123l168 -84l-172 -169l-78 77h-207q-76 -25 -145.5 -47.5t-133.5 -43.5zM686 606h506l-258 580z" />
<glyph unicode="B" horiz-adv-x="1733" d="M209 1319l221 219h226l139 -70l227 113l-221 -219h-225l-140 70zM277 623v188l82 82h133v59q14 32 32 69t41 81q20 20 46 44.5t57 55.5v-688q-14 -32 -32.5 -69t-41.5 -80q-20 -20 -45.5 -45t-56.5 -56v453h-121zM348 -22l197 131q13 9 37.5 25.5t60.5 39.5l148 49 q2 1 11 4.5t25 11.5q19 9 37 9h291q13 -5 26.5 -9.5t27.5 -9.5v658q35 17 72 36.5t77 39.5q4 3 38 36.5t99 98.5v202q-63 63 -65 64q-5 3 -37.5 20t-95.5 48l-271 -136v-639q-14 -32 -32 -69t-41 -80q-20 -20 -46 -44.5t-57 -55.5v688q14 30 32.5 67t41.5 82l51 49l25 27 l440 219l156 -78l75 -151v-154q-30 -32 -67 -69.5t-82 -81.5q-28 -14 -58 -28.5t-63 -31.5l195 -131l75 -149v-451h-155l-137 -70q-6 -4 -150 -148l-152 75h-352q-26 -7 -119.5 -30.5t-257.5 -63.5zM1241 219l125 -41l129 64v188h-254v-211zM1241 463h254v182h-254v-182z M1241 678h254v51l-133 199l-121 -62v-188z" />
<glyph unicode="C" horiz-adv-x="1733" d="M348 588v291l50 145q3 10 9 28.5t15 45.5q1 4 72 147l98 98q7 8 19 20.5t30 29.5l238 116l-72 -69l-141 -144q-3 -3 -25 -47l-47 -92l-47 -141q-11 -32 -16 -49t-6 -21v-282l69 -209l209 -209l209 -70h211l201 68v1046h-131l-136 68l-59 -58v-714q-14 -32 -32.5 -69 t-41.5 -81q-20 -20 -45.5 -44.5t-56.5 -55.5v909q29 14 66.5 33t82.5 43l222 221l151 -76h133l137 140l-118 -240l-140 -70v-1038q29 14 58.5 29t58.5 30q8 6 25.5 23.5l46.5 46.5l141 143l-117 -237l-49 -49l-98 -99l-148 -71q-7 -2 -25 -8.5t-48 -16.5l-146 -49h-219 q-19 0 -38 9q-16 7 -25 11t-11 5l-147 49q-10 7 -28 19t-44 30l-147 98q-17 31 -35.5 67.5t-38.5 80.5q-1 2 -10.5 31t-28.5 84z" />
<glyph unicode="D" horiz-adv-x="1661" d="M205 -22l98 65l197 131l221 74h201v1114h-418q-32 14 -69 32.5t-80 41.5q-20 20 -45 45.5t-56 56.5h1047l151 -76l76 -151v-1096h-156l-137 -70l-149 -148l-152 75h-352q-26 -7 -119.5 -30.5t-257.5 -63.5zM348 623v188l82 82h133v59q14 32 32.5 69t41.5 81 q20 20 46 44.5t57 55.5v-616q-14 -32 -32.5 -69t-41.5 -81q-20 -20 -46 -44.5t-57 -55.5v381h-120zM955 248h57q2 -1 55 -18t156 -52l129 64v338l-131 65h-135l-131 -65v-332zM955 616l122 62h152l123 -62v377l-123 -61h-152l-122 61v-377zM955 1030l131 -65h135l131 65v270 l-62 62h-335v-332z" />
<glyph unicode="E" horiz-adv-x="1733" d="M209 1319l221 219h154l139 -70l228 113l-222 -219h-153l-140 70zM277 623v188l82 82h133v59q14 32 32 69t41 81q20 20 46 44.5t57 55.5v-688q-14 -32 -32.5 -69t-41.5 -80q-20 -20 -45.5 -45t-56.5 -56v453h-121zM348 -22l199 131q13 9 37.5 25.5t60.5 39.5 q48 11 98.5 24t106.5 27v797l49 145q3 10 9 28.5t16 45.5q37 95 72 148l51 49q7 10 24 26l150 74h149l244 -82l-170 -170l-151 76h-136q-26 -13 -60.5 -30t-76.5 -40q-3 -2 -19.5 -18t-47.5 -47l-70 -209v-471q10 41 32 95.5t56 123.5q3 7 9 19t16 30q18 17 37.5 36.5 l41.5 41.5h154l168 -84l-172 -170l-78 78h-131l-63 -64l-70 -209v-211q13 4 26 7.5t27 7.5h363q22 -5 100.5 -25t216.5 -55l-172 -169l-221 73h-498q-26 -7 -119.5 -30.5t-257.5 -63.5z" />
<glyph unicode="F" horiz-adv-x="1661" d="M160 -19l131 128q8 9 24.5 25.5l39.5 39.5l149 74h152l286 -144h62l61 62v1079l150 76q14 15 32.5 33.5l40.5 40.5l148 147l151 -76h134l137 140l-119 -240l-152 -76h-131v-987h-32v414h-183v-418l-75 -152q-74 -35 -150 -75h-2l-143 -72h-152l-143 72h-137 q-76 -25 -145.5 -47.5t-133.5 -43.5zM352 1319l222 219h225l139 -70l228 113l-222 -219h-225l-139 70zM492 623v188l82 82h133v59q14 32 32.5 69t41.5 81q20 20 45.5 44.5t56.5 55.5v-616q-14 -32 -32.5 -69t-41.5 -81q-20 -20 -45.5 -44.5t-56.5 -55.5v381h-121zM1241 893 h183v403l-123 62l-60 -58v-407z" />
<glyph unicode="G" horiz-adv-x="1805" d="M348 659v220l50 145q3 10 9 28.5t15 45.5q1 4 72 147l98 98q7 8 19 20.5t30 29.5l238 116l-72 -69l-141 -144q-3 -3 -25 -47l-47 -92l-47 -141q-11 -32 -16 -49t-6 -21v-354q2 -7 7 -24t15 -46l47 -141l47 -92q3 -8 9 -19.5t16 -27.5l92 -92l45 -48l209 -69h268v833 l-53 27h59l246 442l-88 -45h-151l-136 68l-59 -58v-786q-14 -32 -32.5 -69t-41.5 -80q-20 -20 -45.5 -45t-56.5 -56v981q30 14 67 33t82 43l222 221l151 -76h133l150 150l-140 -248l5 -4l-9 -4l-258 -467h119q30 -14 67.5 -32.5t82.5 -41.5l75 -76l74 -149v-223 q-17 -35 -35.5 -72.5t-38.5 -77.5l-149 -147q-54 -18 -108.5 -36.5t-110.5 -37.5q-4 0 -21 -5v5h-272q-49 17 -103.5 35.5t-117.5 38.5h-2q-34 17 -70 34.5t-74 36.5l-19 19t-30 31l-98 98l-72 147q-5 19 -11 37t-13 37zM1313 43q23 10 52 24.5t65 34.5l67 68l70 137v51 h-254v-315zM1313 391h254v182h-254v-182zM1313 606h244l-19 39l-41 78l-67 68l-31 15.5t-86 43.5v-244z" />
<glyph unicode="H" horiz-adv-x="1733" d="M209 1319l221 219h226l139 -70l227 113l-221 -219h-225l-140 70zM277 623v188l82 82h133v59q14 32 32 69t41 81q20 20 46 44.5t57 55.5v-688q-14 -32 -32.5 -69t-41.5 -80q-20 -20 -45.5 -45t-56.5 -56v453h-121zM344 -24l201 133q13 9 37.5 25.5t60.5 39.5l148 49 q2 1 11 4.5t25 11.5q19 9 37 9h222l123 -62v701q35 17 72.5 36.5t76.5 39.5q12 9 154 151l86 -86l73 -221v-291l-73 -291q-1 -2 -62 -94l-125 -185l82 484h-252v-297l-12 6l-143 -142l-152 75h-227zM850 408v688q14 29 32.5 66.5t41.5 82.5l70 68l155 153l144 72h151 l168 -84l-172 -170l-150 150h-131l-133 -134v-643q-14 -32 -32 -69t-41 -80q-20 -20 -46 -44.5t-57 -55.5zM1241 463h254v182h-254v-182zM1241 678h254v123l-65 131h-58l-131 -66v-188z" />
<glyph unicode="I" horiz-adv-x="1375" d="M66 -42l145 142q10 13 28 31t44 43l149 74h152l287 -144h129l65 132v786q17 52 35.5 106.5t38.5 114.5l217 219l-115 -231v-860l-73 -150q-29 -29 -65 -64.5t-79 -78.5l-4 -6h-6l-143 -72h-224l-143 72h-207zM281 1319l221 219h223q28 -9 80.5 -26.5l130.5 -43.5l230 113 l-222 -219h-223l-211 70zM492 623v188l82 82h133v59q14 32 32.5 69t41.5 81q20 20 45.5 44.5t56.5 55.5v-616q-14 -32 -32.5 -69t-41.5 -81q-20 -20 -45.5 -44.5t-56.5 -55.5v381h-121z" />
<glyph unicode="J" horiz-adv-x="1446" d="M277 225v156l82 82h84l88 -88l-88 -88h-78v32h65l56 56l-56 55h-59l-62 -61v-131l136 -136l209 -69h210l205 69l68 134v786q17 52 35.5 106.5t38.5 114.5l217 219l-115 -231v-860q-17 -35 -35.5 -72.5t-38.5 -77.5l-149 -147l-221 -74h-220q-52 17 -106.5 35.5 t-114.5 38.5zM352 1319l222 219h223q28 -9 80.5 -26.5l130.5 -43.5l229 113l-221 -219h-223l-211 70zM563 623v188l82 82h133v59q14 32 32.5 69t41.5 81q20 20 46 44.5t57 55.5v-616q-14 -32 -32.5 -69t-41.5 -81q-20 -20 -46 -44.5t-57 -55.5v381h-120z" />
<glyph unicode="K" horiz-adv-x="1733" d="M209 1319l221 219h226l139 -70l227 113l-221 -219h-225l-140 70zM277 623v188l82 82h133v59q14 32 32 69t41 81q20 20 46 44.5t57 55.5v-688q-14 -32 -32.5 -69t-41.5 -80q-20 -20 -45.5 -45t-56.5 -56v453h-121zM348 -22l197 131q13 9 37.5 25.5t60.5 39.5l148 49 q2 1 11 4.5t25 11.5q19 9 37 9h222l123 -62v697l231 231q38 -38 58.5 -58t23.5 -22q5 -4 21.5 -12.5t45.5 -22.5l136 -67h-62l-92 -139q-6 -10 -18 -27t-29 -43q-2 -4 -34 -36l-93 -93l129 -64l74 -292l65 -134h101l-105 -104h-84l-80 80l-71 430l-58 57l-127 -127v-307 l-12 6l-143 -142l-152 75h-209q-26 -7 -119.5 -30.5t-257.5 -63.5zM850 408v688q17 37 35.5 74t38.5 75q2 2 29 29.5t80 80.5l110 109l71 35.5t79 38.5h151l168 -84l-172 -170l-150 150h-131l-133 -134v-643q-14 -32 -32 -69t-41 -80q-20 -20 -46 -44.5t-57 -55.5zM1241 485 l105 105l-62 59l80 -39q27 25 60.5 58t74.5 75q8 14 18.5 30t22.5 34l84 125h-116l-136 67l-131 -129v-385z" />
<glyph unicode="L" horiz-adv-x="1590" d="M209 1319l221 219h226l139 -70l227 113l-221 -219h-225l-140 70zM277 623v188l82 82h133v59q14 32 32 69t41 81q20 20 46 44.5t57 55.5v-688q-14 -32 -32.5 -69t-41.5 -80q-20 -20 -45.5 -45t-56.5 -56v453h-121zM348 -22l297 196l32 8t65 17l194 49h344v1186h-121 l-133 -134v-643q-14 -32 -32 -69t-41 -80q-20 -20 -46 -44.5t-57 -55.5v688q17 37 35.5 74t38.5 75q2 2 29 29.5t80 80.5l110 109l71 35.5t79 38.5h151l168 -84l-172 -170l-127 127v-1167l303 -76l-172 -169l-221 73h-498q-26 -7 -119.5 -30.5t-257.5 -63.5z" />
<glyph unicode="M" horiz-adv-x="2020" d="M137 -42l146 142q10 13 28 31t44 43l149 74h152l143 -72h61l62 62v1124h-49l-133 -133v-572q-14 -32 -32.5 -69t-41.5 -80q-20 -20 -46 -44.5t-57 -55.5v309h-120l-95 -94v188l82 82h133v131q64 137 144 217l303 303l287 -287l286 287l303 -303v-934l66 -131h100 l-182 -181l-160 159v563h-182v-492q-26 -30 -78 -78q-40 -26 -96 -63.5t-131 -86.5l-164 163l78 78v479h-182v-490q-14 -30 -32.5 -67t-41.5 -82l-80 -78h-82l-143 72h-207zM955 893h182v264l-182 182v-446zM1313 307l66 -131h55l61 62v1124h-49l-133 -133v-922zM1528 893 h182v264l-182 182v-446z" />
<glyph unicode="N" horiz-adv-x="1805" d="M232 -19l131 128q8 9 24 25.5t39 39.5l137 68v475h-120l-95 -94v188l82 82h133v541h-120l-138 -140l-24 25q60 63 145 145q33 17 70.5 35.5t79.5 38.5h151l150 -76l147 -219l43 -96l23 -47l4 4l70 -70l36 -18t101 -51h135l131 65v260h-59l-168 84l168 168l151 -76h133 l137 140l-118 -240l-152 -76h-59v-1299q-40 19 -82 39.5t-88 43.5q-11 11 -48 47.5t-100 99.5l-141 285l-135 67h-279l-131 -65v-260h203l168 -84l-172 -169l-78 77h-207zM596 545l123 61h295l106 -53l-131 307q-32 77 -66.5 150t-70.5 145q-2 5 -37 57.5t-102 153.5 l-117 57v-878zM1123 1028l174 -383q11 -26 32.5 -73t53.5 -117q1 -3 47 -72l94 -141l43 -43v794l-123 -61h-151q-16 8 -38.5 19t-52.5 25q-71 35 -79 52z" />
<glyph unicode="O" horiz-adv-x="1876" d="M348 659v291l50 146q3 10 9 28.5t15 44.5q1 3 72 148l98 98q7 8 19 20.5t30 28.5l238 117l-72 -70l-141 -143q-3 -3 -25 -47l-47 -92l-47 -142q-11 -32 -16 -49.5t-6 -19.5v-426q2 -7 7 -24t15 -46l47 -141l47 -92q3 -8 9 -19.5t16 -27.5l92 -92l45 -48q44 -16 96 -33 t113 -36h139l209 69l137 138l138 342l-127 63h-64l-131 -65v-492h-33v1331q-31 -22 -78.5 -53.5t-111.5 -73.5l-64 -20v-758q-14 -32 -32 -69t-41 -80l-103 -101v983q49 15 104.5 33.5t118.5 40.5l207 137v19l13 -7l71 72q37 -18 76.5 -37.5t81.5 -40.5q99 -98 147 -147 l72 -148q2 -7 8.5 -25t16.5 -48l49 -146v-291l-49 -145q-3 -10 -9 -28.5t-16 -45.5q-2 -5 -72 -147l-98 -98q-7 -8 -19.5 -20.5l-29.5 -29.5l-146 -71l-221 -74h-147l-146 49q-10 3 -28.5 9t-44.5 16q-2 1 -39 18.5t-109 52.5l-98 99q-8 8 -20.5 20t-28.5 29l-72 147 q-5 19 -11 37t-13 37zM1313 616l123 62h80l123 -62v377l-123 -61h-80l-123 61v-377zM1313 1030l131 -65h64l124 61l-204 340l-115 57v-393z" />
<glyph unicode="P" horiz-adv-x="1590" d="M183 -36l309 204v549h-121l-94 -94v188l82 82h133v410q-16 32 -33.5 66.5t-36.5 70.5l-141 141l158 -78q11 -5 30.5 -15t48.5 -24l76 -75l74 -150v-45q61 38 133 88t156 113l198 149l301 -303v-1020l-143 -71v-13l-12 4l-144 -144l-151 75h-123v-341h-33v1545l-182 -121 v-1502l-176 -176v589zM883 248h201q42 -14 90.5 -30.5t105.5 -35.5v398l-131 65h-135l-131 -65v-332zM883 616l123 62h151l123 -62v377l-123 -61h-151l-123 61v-377zM883 1030l131 -65h135l131 65v127l-205 205h-108l-84 -64v-268z" />
<glyph unicode="Q" horiz-adv-x="1876" d="M348 659v291l50 146q3 10 9 28.5t15 44.5q1 3 72 148l98 98q7 8 19 20.5t30 28.5l238 117l-72 -70l-141 -143q-3 -3 -25 -47l-47 -92l-47 -142q-11 -32 -16 -49.5t-6 -19.5v-426l47 -141q3 -10 8.5 -27t13.5 -43q1 -3 72 -139l139 -140l42 -21t87 -44l70 67h82l139 -69 l65 32.5t68 34.5q3 2 139 138l138 342l-127 63h-64l-131 -65v-492h-33v1331q-31 -22 -78.5 -53.5t-111.5 -73.5l-64 -20v-758q-14 -32 -32 -69t-41 -80l-103 -101v983q49 15 104.5 33.5t118.5 40.5l207 137v19l13 -7l71 72q37 -18 76.5 -37.5t81.5 -40.5q99 -98 147 -147 l72 -148q2 -7 8.5 -25t16.5 -48l49 -146v-291l-49 -145q-3 -10 -9 -28.5t-16 -45.5q-2 -5 -72 -147l-98 -98q-7 -8 -19.5 -20.5l-29.5 -29.5l-272 -135l135 -179q50 -67 84 -106t53 -52l137 -69h107l-105 -105h-153l-152 76l-213 425h-209l-98 49l-195 96l-19 19t-30 31 l-98 98l-72 147q-5 19 -11 37t-13 37zM977 33h137l-39 39h-59zM1313 616l123 62h80l123 -62v377l-123 -61h-80l-123 61v-377zM1313 1030l131 -65h64l124 61l-204 340l-115 57v-393z" />
<glyph unicode="R" horiz-adv-x="1733" d="M209 1319l221 219h226l139 -70l227 113l-221 -219h-225l-140 70zM277 623v188l82 82h133v59q14 32 32 69t41 81q20 20 46 44.5t57 55.5v-688q-14 -32 -32.5 -69t-41.5 -80q-20 -20 -45.5 -45t-56.5 -56v453h-121zM348 -22l197 131q13 9 37.5 25.5t60.5 39.5l148 49 q2 1 11 4.5t25 11.5q19 9 37 9h148l244 -82l-170 -169l-152 75h-209q-26 -7 -119.5 -30.5t-257.5 -63.5zM850 408v688l25 49l49 100l2 2q4 3 10 9t15 14l49 49l145 96q10 7 28 19.5t44 29.5q2 1 39 20t112 56l156 -78l76 -151v-224q-14 -30 -32.5 -67t-41.5 -82l-76 -76 q-12 -5 -34 -16l-54 -27l-172 -86l39 -18l78 -39q4 -5 23.5 -25t56.5 -57q11 -21 27 -49.5t38 -63.5l144 -239q13 -14 29 -30l36 -36h105l-183 -181l-157 157l-144 430l-133 131l-127 -64q-27 -59 -69 -141zM1026 688q27 11 92 49.5t168 104.5l70 45l68 137v207l-68 135 l-129 66l-201 -134v-610z" />
<glyph unicode="S" horiz-adv-x="1661" d="M205 -22l199 131q14 11 38.5 27.5t59.5 37.5q2 1 74.5 19.5t216.5 54.5h219q108 -35 219 -72l-10 -29l135 205q23 29 70 103l69 209v135q-57 57 -65 63q-5 3 -39 20.5t-98 49.5h-347l-120 -182h333l82 -82v-82l-104 -209v131l-131 65h-277q-29 -31 -63.5 -66t-75.5 -75 l-149 -74h-93v127l93 -90q55 25 129 66q4 2 32 30l82 82h-180l-152 76l-75 152v114q19 -20 43.5 -44t54.5 -52q11 -6 45.5 -23t91.5 -46h275l121 182h-187q-46 16 -100.5 34t-120.5 40q-38 36 -78 75l-76 154l74 149l80 80l221 74h291q22 -5 100.5 -25t216.5 -55l-108 -108 q-9 -8 -22.5 -21t-32.5 -33q-11 -17 -21 -32.5t-20 -30.5l-84 -125h403l152 -76l75 -151v-154l-73 -96l-146 -195q-13 -20 -37 -55.5t-59 -89.5l-197 -294l-223 75h-354q-26 -7 -119.5 -30.5t-257.5 -63.5zM453 1241l63 -63l209 -70h277l131 197l-35.5 35.5t-15.5 14.5 q-14 11 -58 34l-92 47q-19 10 -45 19t-58 19l-106 31l-207 -69l-63 -64v-131z" />
<glyph unicode="T" horiz-adv-x="1733" d="M305 1223l119 239l152 76h293q34 0 72 -9q31 -7 48.5 -11t22.5 -5l287 -47h280l232 115l-146 -143q-20 -24 -71 -74l-138 -68v-1038q29 14 58.5 29t58.5 30q8 6 25.5 23.5l46.5 46.5l141 143l-117 -237l-49 -49l-98 -99l-148 -71q-7 -2 -25 -8.5t-48 -16.5l-146 -49h-219 q-8 2 -34 11t-70 24l-115 39q-2 1 -38.5 19.5t-108.5 53.5l-99 148q-8 11 -20.5 28.5t-28.5 43.5l-49 147q-1 2 -5 11t-11 25q-9 19 -9 38v291q0 15 38 115q36 94 34 102l74 147l28 -16l-69 -140v-352q2 -7 7 -24t15 -45l47 -140q7 -10 19 -27.5t29 -43.5l92 -140 q29 -16 63.5 -33t75.5 -36q2 -1 29.5 -10.5t81.5 -26.5l100 -33h211l201 68v1046h-201q-19 6 -38.5 12.5t-41.5 14.5l23 -23l-68 -65v-643q-14 -32 -32.5 -69t-41.5 -81q-20 -20 -45.5 -44.5t-56.5 -55.5v838q29 14 66.5 32.5t82.5 42.5q3 2 20.5 19t49.5 49 q-173 58 -348 117h-209q-32 -16 -66.5 -33.5t-70.5 -36.5q-3 -2 -142 -141z" />
<glyph unicode="U" horiz-adv-x="1733" d="M209 1319l221 219h152q28 -9 80.5 -26.5l130.5 -43.5l229 113l-221 -219h-152l-210 70zM348 588v291q0 17 9 37q7 14 11 23t5 13l49 146q4 8 15 31t30 61l92 186l-106 -430v-211q2 -5 7 -22.5t15 -46.5l47 -142l48 -92q7 -17 24 -47l92 -92l45 -47l209 -70h269v1110 l-203 -51h20v-649q-14 -32 -32 -69t-41 -81q-20 -20 -46 -44.5t-57 -55.5v760l76 153l197 49q13 3 37 9t59 16l139 70l154 151q68 -68 113 -95q5 -4 39.5 -21.5t99.5 -49.5l-164 -82v-989l65 -131h101l-183 -181l-147 144q-44 -24 -133 -65q-7 -2 -35.5 -12t-79.5 -27 l-104 -35h-220q-52 17 -106.5 35.5t-114.5 38.5l-49 49l-100 98q-3 3 -25 49l-47 99l-49 145q-2 4 -5.5 13t-10.5 23q-9 19 -9 38zM1241 182l183 62v401h-183v-463zM1241 678h183v254h-183v-254zM1241 965h183v335l-60 58l-123 -62v-331z" />
<glyph unicode="V" horiz-adv-x="1661" d="M277 623v188l82 82h133v410q-16 32 -33.5 66.5t-36.5 70.5l-141 141l158 -78q11 -5 30.5 -15t48.5 -24l76 -75l74 -150v-991h254v999q39 10 95 28t130 46l92 47q8 3 19.5 9t27.5 16q13 10 154 151q68 -68 113 -95q5 -4 39.5 -21.5t99.5 -49.5l-164 -82v-1081h-158 q-60 -20 -112 -37t-97 -33l-221 -146l-51 24l-100 51l-142 47q-17 8 -69 22h-283l197 99v475h-121zM955 244l198 -68l199 68v336l-131 65h-135l-131 -65v-336zM955 616l122 62h152l123 -62v377l-123 -61h-152l-122 61v-377zM955 1030l131 -65h135l131 65v270l-59 58l-43 -23 l-91 -43l-204 -69v-193z" />
<glyph unicode="W" horiz-adv-x="1948" d="M277 623v188l82 82h133v340q-17 49 -34 100.5t-36 108.5l-141 139l158 -78q11 -5 30.5 -15t48.5 -24l76 -75l74 -150v-991h182v1138l234 156l157 -158v-1136h183v1138l233 156l158 -158v-1165l-223 -74l-156 -156l-80 158l-133 66l-205 -68l-151 -150l-80 79 q-49 17 -101 34.5t-108 34.5h-283l197 99v475h-121zM883 242l123 -62l59 58v407h-182v-403zM883 678h182v254h-182v-254zM883 965h182v335l-61 62h-121v-397zM1456 242l123 -62l60 58v407h-183v-403zM1456 678h183v254h-183v-254zM1456 965h183v335l-62 62h-121v-397z" />
<glyph unicode="X" horiz-adv-x="1590" d="M162 -67l119 239l151 76h154l59 -60l207 480l29 -13l-143 -336q-56 -132 -150 -324l-156 77h-133zM209 1319q31 32 67 67.5t79 77.5l149 74h154l80 -78l282 -639h348v-33h-334l277 -618l63 -66h132l137 140l24 -25l-151 -147l-144 -72h-153l-80 78l-574 1290l-63 66h-131 l-137 -140zM508 788v33h287v-33h-287zM996 883l292 661l156 -78h133l137 140l-118 -240l-152 -76h-154l-55 53l-211 -473z" />
<glyph unicode="Y" horiz-adv-x="1661" d="M277 623v188l82 82h133v410q-16 32 -33.5 66.5t-36.5 70.5l-141 141l158 -78q11 -5 30.5 -15t48.5 -24l76 -75l74 -150v-991h254v999q39 10 95 28t130 46l92 47q8 3 19.5 9t27.5 16q13 10 154 151q68 -68 113 -95q5 -4 39.5 -21.5t99.5 -49.5l-164 -82v-1498 q-17 -35 -35.5 -72.5t-38.5 -76.5q-2 -3 -153 -154l-51 27l-103 49l-188 47q-14 5 -38 11.5t-57 13.5h-489l418 104h434l205 -68l63 127v206l-133 199q-89 -27 -201 -66l-221 -146l-51 24l-100 51l-142 47q-17 8 -69 22h-283l197 99v475h-121zM955 244l198 -68l199 68v336 l-131 65h-135l-131 -65v-336zM955 616l122 62h152l123 -62v377l-123 -61h-152l-122 61v-377zM955 1030l131 -65h135l131 65v270l-59 58l-43 -23l-91 -43l-204 -69v-193z" />
<glyph unicode="Z" horiz-adv-x="1446" d="M254 -7l160 212q11 14 31 40.5t49 65.5q2 3 49 97l94 190q2 4 13.5 20t33.5 44l97 126h-273v33h297q7 10 19 26.5t30 39.5l357 428q11 23 23.5 47.5t25.5 50.5q-36 -22 -101 -51l-194 -47q-5 -1 -16.5 -5t-31.5 -11q-26 -9 -48 -9h-291q-22 5 -101 25t-217 55l172 170 l222 -74h426q28 5 127 25t272 55l-160 -213q-11 -14 -31 -40.5t-49 -65.5q-2 -3 -49 -97l-94 -190l-94 -119h295v-33h-322l-453 -565q-11 -23 -23 -47.5t-26 -50.5q36 22 101 51l194 47q5 1 16.5 5t31.5 11q25 9 48 9h291q22 -5 101 -25t217 -55l-172 -169l-221 73h-426z " />
<glyph unicode="[" horiz-adv-x="1016" d="M420 -501v2326h535v-105h-430v-2116h430v-105h-535z" />
<glyph unicode="\" horiz-adv-x="1661" d="M121 1825h111l1308 -2326h-110z" />
<glyph unicode="]" horiz-adv-x="1016" d="M348 -396h430v2116h-430v105h535v-2326h-535v105z" />
<glyph unicode="^" horiz-adv-x="1590" d="M357 1464l581 363l582 -363l-14 -28l-568 211l-567 -211z" />
<glyph unicode="_" horiz-adv-x="1733" d="M277 -110h1466v-104h-1466v104z" />
<glyph unicode="`" horiz-adv-x="945" d="M492 1518v151l84 168l170 -172l-150 -149v-127l135 -68l-16 -29l-147 74z" />
<glyph unicode="a" horiz-adv-x="1231" d="M342 877l166 165l82 -79q7 -5 41.5 -22.5t97.5 -49.5q9 -1 31 -8q5 1 12 3t17 5q28 14 62.5 31.5t76.5 40.5l82 79l166 -165l-78 -78v-561l61 -62h105l-182 -181l-160 159v55l-191 -64l-147 -148l-160 79l-76 151v152q17 35 35.5 72l38.5 77q28 27 61.5 60.5l73.5 73.5z M453 379l67 -135l136 -68h65l201 68v549l-164 55q-35 -13 -78.5 -28t-97.5 -32h-107l260 -258l-24 -24l-131 133l-127 -127v-133z" />
<glyph unicode="b" d="M223 143l197 99v989l-76 153l252 168v-725q34 8 82 24.5t111 39.5l92 47q13 6 47 25q7 4 82 79q71 -71 97 -87q8 -7 122 -62h137l-196 -98v-652h-158q-6 -2 -23.5 -7t-46.5 -15l-141 -47q-26 -14 -64.5 -33t-89.5 -44l-77 77q-53 25 -138 69h-209zM596 242 q26 -12 60.5 -29t76.5 -39l66 -68l195 66v623l-132 65h-65l-201 -67v-551z" />
<glyph unicode="c" horiz-adv-x="1016" d="M223 143l197 99v647l297 76q9 2 154 75q18 -19 37.5 -38t39.5 -39q4 -3 138 -70h137l-209 -105h-154l-141 140l-123 -62v-624l131 -66h137l-135 -67q-15 -8 -31.5 -16.5t-35.5 -18.5q-6 -5 -82 -79q-73 72 -96 86q-1 1 -31.5 16t-91.5 46h-138z" />
<glyph unicode="d" horiz-adv-x="1231" d="M223 143l197 99v647l76 24l149 50l121 61l-356 356l250 166l78 -231l432 -432v-740h-158q-6 -2 -23.5 -7t-46.5 -15l-141 -47q-26 -14 -64.5 -33t-89.5 -44l-77 77q-53 25 -138 69h-209zM596 242q26 -12 60.5 -29t76.5 -39l66 -68l195 66v627l-201 200l-197 -131v-626z " />
<glyph unicode="e" horiz-adv-x="1016" d="M223 143l197 99v647l297 76q9 2 154 75l235 -311l-510 -293v-194l131 -66h137l-135 -67q-15 -8 -31.5 -16.5t-35.5 -18.5q-6 -5 -82 -79q-73 72 -96 86q-1 1 -31.5 16t-91.5 46h-138zM596 475l324 184l-201 269l-123 -62v-391z" />
<glyph unicode="f" horiz-adv-x="945" d="M221 1004v32h199v355l223 57l9 6h2l143 88q72 -72 80 -78l36 -18t101 -51h137l-209 -105h-153l-137 123l-56 -43v-334h271v-32h-271v-762l131 -66h137l-135 -67q-15 -8 -31.5 -16.5t-35.5 -18.5q-6 -5 -82 -79q-73 72 -96 86q-1 1 -31.5 16t-91.5 46h-138l197 99v762 h-199z" />
<glyph unicode="g" d="M223 143l197 99v651h158q5 2 22.5 7t46.5 15l142 48l64 32t89 45q19 -19 38.5 -38t39.5 -39q4 -3 38 -20.5t99 -49.5h209l-196 -98v-851q-17 -51 -34.5 -104t-37.5 -111v-4q-32 -34 -69 -71.5t-81 -80.5q-35 -17 -73.5 -36.5t-83.5 -41.5l-78 78q-4 3 -38 20.5t-99 49.5 h-209l209 104h151q29 -13 66.5 -31.5t83.5 -42.5l61 -63l127 127v135q0 17 -9 37q-13 28 -15 35l-47 142v133q-73 -25 -132.5 -49.5t-107.5 -48.5l-92 -47q-6 -5 -82 -79q-73 72 -96 86q-1 1 -31.5 16t-91.5 46h-138zM596 242l131 -66h66l201 78v541q-27 11 -61.5 28 t-76.5 39q-14 16 -30.5 32.5t-34.5 35.5l-195 -66v-622z" />
<glyph unicode="h" d="M223 143l197 99v989l-76 153l252 168v-725q34 8 82 24.5t111 39.5l92 47q13 6 47 25q7 4 82 79q71 -71 97 -87q8 -7 122 -62h137l-196 -98v-641q-32 -31 -68 -67.5t-78 -80.5q-5 -10 -22.5 -44t-46.5 -92v-205l165 -166h-120q-19 38 -38.5 76.5t-39.5 77.5v227l72 282 v633l-132 65h-65l-201 -67v-551l156 -78l-172 -169q-73 72 -96 86q-1 1 -31.5 16t-91.5 46h-138z" />
<glyph unicode="i" horiz-adv-x="730" d="M256 877q35 17 77 38.5t93 47.5q9 6 82 79q73 -73 82 -79q3 -2 45.5 -23t124.5 -63l-164 -82v-557l62 -62h104l-182 -181l-160 159v641zM336 1374l172 170l172 -170l-172 -86z" />
<glyph unicode="j" horiz-adv-x="730" d="M256 877q35 17 77 38.5t93 47.5q9 6 82 79q73 -73 82 -79q3 -2 45.5 -23t124.5 -63l-164 -82v-633q0 -34 36 -143q36 -110 36 -143v-223l-154 -154h-166v115l156 -78l131 129v205l-70 136q-9 12 -145 148v641zM336 1374l172 170l172 -170l-172 -86z" />
<glyph unicode="k" horiz-adv-x="1231" d="M223 143l197 99v989l-76 153l252 168v-716l64 43l127 84l157 77l160 -239l-211 -142l60 -61l143 -358l63 -64h105l-182 -181l-158 157l-72 358l-69 68l2 2l-189 -142v-196l156 -78l-172 -169q-73 72 -96 86q-1 1 -31.5 16t-91.5 46h-138zM596 479l174 131q60 45 156 111 l-135 205l-195 -129v-318z" />
<glyph unicode="l" horiz-adv-x="730" d="M223 143l197 99v989l-76 153l252 168v-1310l131 -66h137l-135 -67q-15 -8 -31.5 -16.5t-35.5 -18.5q-6 -5 -82 -79q-73 72 -96 86q-1 1 -31.5 16t-91.5 46h-138z" />
<glyph unicode="m" horiz-adv-x="1876" d="M223 143l197 99v557l-61 61h-105l182 182l160 -159v-54q28 10 60 21t69 22q18 4 64 21q18 8 52.5 25t86.5 45q9 6 82 79l160 -159v-56q27 8 75 24.5t117 39.5q72 27 139 72q9 6 82 79q71 -71 97 -87q8 -7 122 -62h138l-197 -98v-557l62 -62h104l-182 -181l-160 159v641 l-131 65h-66l-200 -67v-551l155 -78l-172 -169q-76 74 -82 79q-5 3 -45 23.5t-116 58.5l84 82v557l-132 65h-65q-24 0 -201 -67v-551l156 -78l-172 -169q-73 72 -96 86q-1 1 -31.5 16t-91.5 46h-138z" />
<glyph unicode="n" d="M223 143l197 99v557l-61 61h-105l182 182l160 -159v-56q34 8 82 24.5t111 39.5l92 47q13 6 47 25q7 4 82 79q71 -71 97 -87q8 -7 122 -62h137l-196 -98v-557l61 -62h105l-183 -181l-159 159v641l-132 65h-65l-201 -67v-551l156 -78l-172 -169q-73 72 -96 86 q-1 1 -31.5 16t-91.5 46h-138z" />
<glyph unicode="o" d="M223 143l197 99v651h158q5 2 22.5 7t46.5 15l142 48l64 32t89 45q19 -19 38.5 -38t39.5 -39q4 -3 38 -20.5t99 -49.5h209l-196 -98v-652h-158q-6 -2 -23.5 -7t-46.5 -15l-141 -47q-26 -14 -64.5 -33t-89.5 -44l-77 77q-53 25 -138 69h-209zM596 242q26 -12 60.5 -29 t76.5 -39l66 -68l195 66v623q-27 11 -61.5 28t-76.5 39q-14 16 -30.5 32.5t-34.5 35.5l-195 -66v-622z" />
<glyph unicode="p" d="M223 143l197 99v630l-92 185q39 -18 86 -41.5t104 -52.5l78 -80v-56q34 8 82 24.5t111 39.5l92 47q13 6 47 25q7 4 82 79q71 -71 97 -87q8 -7 122 -62h137l-196 -98v-652h-158q-6 -2 -23.5 -7t-46.5 -15l-141 -47q-26 -14 -64.5 -33t-89.5 -44l-51 52v-243l76 -153 l-252 -168v658h-197zM596 242q26 -12 60.5 -29t76.5 -39l66 -68l195 66v623l-132 65h-65l-201 -67v-551z" />
<glyph unicode="q" d="M223 143l197 99v651h158q5 2 22.5 7t46.5 15l142 48l64 32t89 45q19 -19 38.5 -38t39.5 -39q4 -3 38 -20.5t99 -49.5h209l-196 -98v-1310l-252 168l76 153v403q-34 -8 -82 -24.5t-111 -39.5l-92 -47q-20 -8 -47 -24q-2 -2 -23 -21.5t-59 -57.5q-73 72 -96 86 q-1 1 -31.5 16t-91.5 46h-138zM596 242l131 -66h66l201 68v551q-27 11 -61.5 28t-76.5 39q-14 16 -30.5 32.5t-34.5 35.5l-195 -66v-622z" />
<glyph unicode="r" horiz-adv-x="1016" d="M223 143l197 99v557l-61 61h-105l182 182l148 -145l287 143q18 -19 37.5 -38t39.5 -39q4 -3 138 -70h137l-209 -105h-154l-141 140l-123 -62v-624l131 -66h137l-135 -67q-15 -8 -31.5 -16.5t-35.5 -18.5q-6 -5 -82 -79q-73 72 -96 86q-1 1 -31.5 16t-91.5 46h-138z" />
<glyph unicode="s" horiz-adv-x="1160" d="M281 27l71 96l144 190l188 189h-180l-156 78v309l76 24l150 50l149 75l148 -73h133l137 139l-78 -158q-8 -23 -39 -78l-96 -145q-7 -10 -19 -28t-30 -44l-51 -51t-66 -65h180l156 -78v-310l-223 -73l-4 -6l-4 2l-144 -71l-147 73h-135l-140 -70l-10 16zM363 84l141 92 h223l135 -67l60 57v270l-131 66h-62l-69 -70l-140 -139q-7 -10 -19.5 -27t-31.5 -43zM525 600l131 -65h61l137 137q5 8 16.5 25.5t30.5 45.5l95 142q1 2 7.5 14.5t18.5 36.5l-6 -4h-2l-143 -72h-152l-135 68l-59 -58v-270z" />
<glyph unicode="t" horiz-adv-x="730" d="M221 1004v32h199v195l-76 153l252 168v-516h199v-32h-199v-762l131 -66h137l-135 -67q-15 -8 -31.5 -16.5t-35.5 -18.5q-6 -5 -82 -79q-73 72 -96 86q-1 1 -31.5 16t-91.5 46h-138l197 99v762h-199z" />
<glyph unicode="u" d="M223 143l197 99v557l-61 61h-105l182 182l160 -159v-641l131 -66h66l201 68v551l-156 77l172 170q71 -71 97 -87q8 -7 122 -62h137l-196 -98v-557l61 -62h105l-183 -181l-159 159v55q-34 -8 -82 -24.5t-111 -39.5l-92 -47q-20 -8 -47 -24q-2 -2 -23 -21.5t-59 -57.5 q-73 72 -96 86q-1 1 -31.5 16t-91.5 46h-138z" />
<glyph unicode="v" d="M328 1057q39 -18 86 -41.5t104 -52.5l78 -80v-574q57 -57 66 -63q2 -1 35.5 -18t99.5 -50l197 66v551l-156 77l172 170q71 -71 97 -87q8 -7 122 -62h137l-196 -98v-580h-158q-43 -14 -94.5 -31.5t-114.5 -38.5l-151 -150l-232 230v647z" />
<glyph unicode="w" horiz-adv-x="1876" d="M328 1057q39 -18 86 -41.5t104 -52.5l78 -80v-574q57 -57 66 -63q2 -1 35.5 -18t99.5 -50l197 66v551l-156 77l172 170q73 -73 82 -79q4 -3 162 -82l-84 -82v-490q57 -57 65 -63q2 -1 35.5 -18t99.5 -50l197 66v551l-156 77l172 170q71 -71 97 -87q8 -7 122 -62h138 l-197 -98v-580h-158q-43 -14 -94.5 -31.5t-114.5 -38.5l-151 -150l-219 218l-203 -68l-151 -150l-232 230v647z" />
<glyph unicode="x" horiz-adv-x="1375" d="M234 -67l118 239l156 78l135 -68l133 264l-26 56h-242v33h225l-96 188l-67 68l-138 69h-106l178 180q32 -14 71 -33.5l87 -43.5q40 -39 76 -76q5 -12 16 -34l27 -54l86 -172l210 422l82 -84h131l138 139l-119 -240l-156 -78l-135 68l-133 -264l27 -55h241v-33h-225 l33 -64l63 -125l68 -67q5 -3 39 -20.5t98 -49.5h107l-179 -179q-32 14 -71 33t-86 44q-40 39 -76 76q-5 12 -16 34l-27 54l-86 172l-211 -421l-82 83h-131z" />
<glyph unicode="y" d="M223 143l197 99v557l-61 61h-105l182 182l160 -159v-641l131 -66h66l201 68v551l-156 77l172 170q71 -71 97 -87q8 -7 122 -62h137l-196 -98v-851l-74 -222q-32 -33 -68.5 -70t-79.5 -79q-35 -17 -73.5 -36.5t-83.5 -41.5l-78 78q-4 3 -38 20.5t-99 49.5h-209l209 104 h151q29 -13 66.5 -31.5t83.5 -42.5l61 -63l127 127v135q0 17 -9 37q-13 28 -15 35l-47 142v123q-34 -8 -82 -24.5t-111 -39.5l-92 -47q-20 -8 -47 -24q-2 -2 -23 -21.5t-59 -57.5q-73 72 -96 86q-1 1 -31.5 16t-91.5 46h-138z" />
<glyph unicode="z" d="M320 -11l440 513h-252v33h279l372 434q-38 -22 -92 -48.5t-123 -58.5l-145 -49q-4 -2 -13 -5.5t-23 -10.5q-20 -9 -38 -9h-221l-168 84l168 168l152 -75h280q23 6 106 27t228 57l-440 -514h252v-33h-279l-373 -434q76 43 215 106l146 49q4 1 13 5t23 11q19 9 37 9h222 l168 -84l-168 -167l-152 75h-280q-23 -6 -106 -27t-228 -56z" />
<glyph unicode="{" horiz-adv-x="1016" d="M390 662l174 77l-4 2l69 140v135q-13 27 -30 61t-39 76q-27 22 -72 72q-14 29 -32.5 66l-41.5 83v152l76 151l291 146l16 -29l-137 -70q-16 -43 -33.5 -93.5t-36.5 -110.5v-138q13 -27 30 -61t40 -76q14 -11 31.5 -28.5t40.5 -42.5l74 -150v-154l-78 -96l-256 -112 l256 -113l78 -96v-154q-14 -29 -32.5 -66.5t-41.5 -82.5q-27 -23 -72 -72q-5 -7 -70 -136v-138q17 -48 34 -98.5t36 -105.5l137 -70l-16 -29l-291 146l-76 151v152q14 29 32.5 66t41.5 82q27 22 72 72l18 36t51 101v135l-69 140l4 2z" />
<glyph unicode="|" horiz-adv-x="658" d="M420 -501v2326h105v-2326h-105z" />
<glyph unicode="}" horiz-adv-x="1016" d="M463 299v154l78 96l256 113l-256 112l-78 96v154q14 30 32.5 67.5t41.5 82.5q14 11 31.5 28.5t40.5 42.5l18 36t51 101v138l-69 204l-137 70l16 29l291 -146l76 -151v-152q-14 -29 -32.5 -66.5t-41.5 -82.5q-27 -23 -72 -72q-3 -5 -20.5 -39t-49.5 -98v-135l70 -140 l-4 -2l174 -77l-174 -78l4 -2l-70 -140v-135q13 -27 30 -61t40 -76q27 -23 72 -72q14 -29 32.5 -65.5t41.5 -82.5v-152l-76 -151l-291 -146l-16 29l137 70q31 85 69 204v138q-13 27 -30 60.5t-39 75.5q-27 22 -72 72q-14 29 -32.5 66z" />
<glyph unicode="~" horiz-adv-x="1876" d="M420 446v146l74 225l153 76h152l573 -287h136q26 13 60.5 30t76.5 40q8 6 65 63v138h33v-150l-2 -2l-72 -219l-153 -76h-152l-573 287h-135q-27 -13 -61.5 -30t-76.5 -40q-8 -6 -65 -63v-138h-33z" />
<glyph unicode="&#xa1;" horiz-adv-x="873" d="M328 160l164 82l71 780h33l72 -780l164 -82q-35 -17 -77 -38.5t-93 -47.5q-6 -5 -82 -79q-34 34 -62 57t-51 37q-5 4 -39.5 21.5t-99.5 49.5zM408 1374l172 170l172 -170l-172 -86z" />
<glyph unicode="&#xa2;" horiz-adv-x="1375" d="M336 -214l197 327l-111 110l-74 221v148q17 52 35.5 106.5t38.5 114.5l150 150l221 73h221l55 -28l146 243h110l-170 -284q12 -11 51.5 -50t106.5 -106v-166h-176v176h104v-88h-32v55h-39v-110h110v121q-34 35 -69.5 69.5t-73.5 69.5l-492 -821q4 -8 154 -84h137l209 69 l139 142l25 -25l-148 -145l-221 -74h-147l-182 59l-164 -273h-111zM525 377q8 -26 23 -70.5t36 -107.5l469 782l-47 23h-207q-26 -13 -60.5 -30t-76.5 -40q-8 -6 -68 -66l-69 -209v-282z" />
<glyph unicode="&#xa3;" horiz-adv-x="1375" d="M285 31l139 69l68 136v522h-185v94h185v313q5 17 23 72t50 149q18 19 37 38.5t39 39.5q28 13 63.5 30.5t80.5 39.5l2 4h84q30 -14 67 -32.5t82 -41.5l78 -80v-165h-176v176h104v-88h-32v55h-39v-111h110v121q-63 63 -65 64l-138 69h-59q-76 -73 -135 -202v-451h225v-94 h-225v-522l67 -136l134 -67l147 37q10 2 28.5 6.5t45.5 11.5l8 6l8 6q12 7 39 27q6 9 16.5 24t26.5 35l96 127l27 -18l-147 -295h-302q-5 3 -213 72h-139q-49 -17 -101.5 -35t-109.5 -37z" />
<glyph unicode="&#xa5;" horiz-adv-x="1518" d="M150 1505v33h502v-33h-68l-90 -45l444 -696l408 680l-125 61h-68v33h430v-33h-67l-135 -67l-414 -688h473v-33h-485v-111h485v-33h-485v-411l49 -88l82 -41h67v-33h-573v33h67l88 43l43 88v409h-485v33h485v111h-485v33h471l-448 706l-99 49h-67z" />
<glyph unicode="&#xa7;" horiz-adv-x="1446" d="M348 729v154l74 74t74 75l127 64l-28.5 28.5t-29.5 28.5q-13 28 -31.5 65t-41.5 85v79l24 50l49 100l76 76q29 14 66 32t84 41h151l152 -75l76 -152v-164h-176v176h104v-88h-33v56h-39v-111h111v123l-68 135l-135 68h-135l-135 -68l-68 -135v-133l64 -64l237 -94 q107 -43 190.5 -73t145.5 -48q19 -18 38.5 -37t39.5 -39q14 -29 32.5 -66l41.5 -83v-154l-74 -74t-74 -75l-127 -64l28.5 -28.5t29.5 -28.5q13 -27 31.5 -64t41.5 -85v-80l-75 -165q-70 -69 -224 -133h-151l-152 75l-76 151v164h177v-176h-105v88h33v-56h39v111h-111v-123 l68 -134l135 -68h135l135 68l68 134v133l-64 64l-237 94q-107 43 -190.5 73t-145.5 48q-19 18 -38.5 37t-39.5 39q-14 29 -32.5 66zM453 739l63 -63q136 -41 330 -117l236 -94l131 65l67 136v133l-63 63q-140 40 -330 117l-235 94l-132 -65l-67 -136v-133z" />
<glyph unicode="&#xaa;" horiz-adv-x="730" d="M271 1450l94 94l16 -14q13 -11 37 -27.5t61 -38.5q3 0 13 -2q2 0 10 2q43 20 98 66l17 14l94 -94l-43 -43v-274l27 -25h67l-110 -111l-89 88v19l-81 -27l-76 -78l-88 43l-41 80v80q12 28 39 78q11 11 27 26t36 35zM277 860v64h432v-64h-432zM346 1202l31 -63l64 -31h30 q22 7 44.5 15t47.5 16v262l-71 26q-68 -31 -112 -31q-8 0 -11 1l117 -115l-25 -25l-59 62l-56 -55v-62z" />
<glyph unicode="&#xab;" horiz-adv-x="1375" d="M342 518l541 541v-117l-424 -424l424 -424v-116zM701 518l540 541v-117l-424 -424l424 -424v-116z" />
<glyph unicode="&#xad;" horiz-adv-x="1805" d="M420 645v105h1251v-105h-1251z" />
<glyph unicode="&#xb0;" horiz-adv-x="945" d="M205 1157v154l76 153l225 74h156l2 -4q29 -13 64 -30.5t77 -39.5l78 -80v-153l-76 -154q-54 -17 -109.5 -35.5t-115.5 -37.5h-156l-2 4q-57 25 -141 69zM381 1167l66 -131h127q57 57 77 89q14 29 28 57t28 57v135l-66 131h-127q-57 -57 -63 -65q-3 -5 -20.5 -39 t-49.5 -98v-136z" />
<glyph unicode="&#xb1;" horiz-adv-x="1805" d="M420 72v104h1251v-104h-1251zM420 860v105h574v573h104v-573h573v-105h-573v-573h-104v573h-574z" />
<glyph unicode="&#xb5;" horiz-adv-x="1661" d="M137 -472l142 139l213 1207l-43 87l-88 43h-68v32h375v-731q17 -49 34 -100.5t36 -108.5l63 -63h205l45 22l92 47l68 68l18 36t51 101v697h-198v32h374v-872l43 -88l88 -43h68v-33h-375v233q-7 -16 -17 -36.5t-24 -46.5q-21 -22 -39.5 -40.5l-35.5 -35.5l-150 -74h-225 l-4 2q-59 25 -144 72l-51 51l-25 27l-67 202l-119 -705l-221 -148z" />
<glyph unicode="&#xba;" horiz-adv-x="801" d="M221 1075l127 62v329h86q92 17 185 76q37 -53 108 -76h135l-122 -63v-328h-86q-82 -15 -187 -76q-36 51 -106 76h-140zM318 860v64h452v-64h-452zM453 1137l65 -31l29 -33l88 31v299q-69 27 -96 63l-86 -28v-301z" />
<glyph unicode="&#xbb;" horiz-adv-x="1375" d="M420 -22v116l424 424l-424 424v117l541 -541zM778 -22v116l424 424l-424 424v117l541 -541z" />
<glyph unicode="&#xbc;" horiz-adv-x="2091" d="M295 860l197 98v486l-154 151l248 166l82 -164v-639l131 -65h137l-135 -68q-19 -9 -68 -34q-2 -1 -81 -80q-38 38 -58.5 58t-23.5 22q-53 27 -138 69h-137zM408 -286l1237 2111h110l-1237 -2111h-110zM1137 72v237l518 518l164 -161l-76 -152v-410h193l94 95v-221l-94 94 h-193v-45l131 -65h137l-135 -67q-15 -8 -31.5 -16.5t-35.5 -18.5q-3 -2 -23.5 -22t-58.5 -58q-72 72 -96 87q-1 1 -31.5 16t-91.5 46h-138l197 98v45h-430zM1313 104h254v590l-254 -254v-336z" />
<glyph unicode="&#xbd;" horiz-adv-x="2163" d="M295 860l197 98v486l-154 151l248 166l82 -164v-639l131 -65h137l-135 -68q-19 -9 -68 -34q-2 -1 -81 -80q-38 38 -58.5 58t-23.5 22q-53 27 -138 69h-137zM408 -286l1237 2111h110l-1237 -2111h-110zM1155 678h209q28 13 61.5 30.5t75.5 39.5q2 1 78 77l295 -147h156 v-391h-445l-209 -70q-55 -55 -77 -92q-3 -5 -17.5 -33t-40.5 -80v-179q41 28 88.5 60t102.5 67l147 48q2 1 11 5t25 11q19 9 38 9h219l244 -81l-170 -170l-152 76h-280q-22 -5 -92 -22.5t-191 -47.5q-5 -4 -10.5 -7.5t-11.5 -8.5v248q14 31 32 68t41 82l78 76 q52 17 106.5 35.5t114.5 37.5h273v332l-123 62l-66 -66q-28 -14 -64.5 -32.5t-84.5 -41.5h-152z" />
<glyph unicode="&#xbf;" d="M348 299v152l25 49l49 100l148 148l139 69l86 254l94 -283h-160q-29 -28 -63 -62t-72 -75q-6 -11 -23 -45l-46 -92v-278l67 -136l135 -67h135l136 67l67 136v165l182 -90q-14 -32 -34 -72.5t-45 -88.5l-78 -76l-221 -74h-150q-2 1 -56 19.5t-163 54.5q-19 18 -38.5 37 t-39.5 39q-14 29 -32.5 66zM623 1374l172 170l172 -170l-172 -86z" />
<glyph unicode="&#xc0;" horiz-adv-x="1590" d="M88 -19l131 128q8 9 24.5 25.5l39.5 39.5l149 74h66l301 702l-18 -10l-68 135h-127l-66 -67l-24 24l74 74q29 14 66 32.5l83 41.5h82l68 -66l47 111l-64 143l-63 66h-131l-138 -140l-24 25l151 147l144 72h153l80 -78l502 -1147l63 -65h168l-165 -248h-86l-80 78 l-219 495h-535l-139 -325h123l168 -84l-172 -169l-78 77h-207q-76 -25 -145.5 -47.5t-133.5 -43.5zM590 1825h209l479 -320h-129zM686 606h506l-258 580z" />
<glyph unicode="&#xc1;" horiz-adv-x="1590" d="M88 -19l131 128q8 9 24.5 25.5l39.5 39.5l149 74h66l301 702l-18 -10l-68 135h-127l-66 -67l-24 24l74 74q29 14 66 32.5l83 41.5h82l68 -66l47 111l-64 143l-63 66h-131l-138 -140l-24 25q32 32 69 68.5t80 78.5q11 5 47.5 23t98.5 49h153l80 -78l502 -1147l63 -65h168 l-165 -248h-86l-80 78l-219 495h-535l-139 -325h123l168 -84l-172 -169l-78 77h-207q-76 -25 -145.5 -47.5t-133.5 -43.5zM686 606h506l-258 580zM701 1575l376 250h209l-456 -250h-129z" />
<glyph unicode="&#xc2;" horiz-adv-x="1590" d="M88 -19l131 128q8 9 24.5 25.5l39.5 39.5l149 74h66l301 702l-18 -10l-68 135h-127l-66 -67l-24 24l74 74q29 14 66 32.5l83 41.5h82l68 -66l47 111l-64 143l-63 66h-131l-138 -140l-24 25l151 147l144 72h153l80 -78l502 -1147l63 -65h168l-165 -248h-86l-80 78 l-219 495h-535l-139 -325h123l168 -84l-172 -169l-78 77h-207q-76 -25 -145.5 -47.5t-133.5 -43.5zM541 1505l319 320h156l320 -320h-117l-281 211l-280 -211h-117zM686 606h506l-258 580z" />
<glyph unicode="&#xc3;" horiz-adv-x="1590" d="M88 -19l131 128q8 9 24.5 25.5l39.5 39.5l149 74h66l301 702l-18 -10l-68 135h-127l-66 -67l-24 24l74 74q29 14 66 32.5l83 41.5h82l68 -66l47 111l-64 143l-63 66h-131l-138 -140l-24 25l151 147l144 72h153l80 -78l502 -1147l63 -65h168l-165 -248h-86l-80 78 l-219 495h-535l-139 -325h123l168 -84l-172 -169l-78 77h-207q-76 -25 -145.5 -47.5t-133.5 -43.5zM563 1593v76l78 156h158l287 -144h61l62 62v65h32v-77l-77 -154h-158l-287 143h-61l-62 -61v-66h-33zM686 606h506l-258 580z" />
<glyph unicode="&#xc4;" horiz-adv-x="1590" d="M88 -19l131 128q8 9 24.5 25.5l39.5 39.5l149 74h66l301 702l-18 -10l-68 135h-127l-66 -67l-24 24l74 74q29 14 66 32.5l83 41.5h82l68 -66l47 111l-64 143l-63 66h-131l-138 -140l-24 25l151 147l144 72h153l80 -78l502 -1147l63 -65h168l-165 -248h-86l-80 78 l-219 495h-535l-139 -325h123l168 -84l-172 -169l-78 77h-207q-76 -25 -145.5 -47.5t-133.5 -43.5zM479 1661l173 170l172 -170l-172 -86zM686 606h506l-258 580zM1053 1661l172 170l172 -170l-172 -86z" />
<glyph unicode="&#xc5;" horiz-adv-x="1590" d="M88 -19l131 128q8 9 24.5 25.5l39.5 39.5l149 74h66l301 702l-18 -10l-68 135h-127l-66 -67l-24 24l74 74q29 14 66 32.5l83 41.5h82l68 -66l47 111l-64 143l-63 66h-131l-138 -140l-24 25l151 147l144 72h37l-50 49v156l82 82h156l82 -82v-156l-82 -82h-39l47 -45 l502 -1147l63 -65h168l-165 -248h-86l-80 78l-219 495h-535l-139 -325h123l168 -84l-172 -169l-78 77h-207q-76 -25 -145.5 -47.5t-133.5 -43.5zM686 606h506l-258 580zM811 1599l62 -61h131l61 61v132l-61 61h-131l-62 -61v-132z" />
<glyph unicode="&#xc6;" horiz-adv-x="2091" d="M88 -19l131 128q8 9 24.5 25.5l39.5 39.5l149 74h66l301 702l-18 -10l-68 135h-127l-66 -67l-24 24l74 74q29 14 66 32.5l83 41.5h82l68 -66l47 111l-64 143l-63 66h-131l-138 -140l-24 25q60 63 145 145q33 17 70.5 35.5t79.5 38.5h295l139 -70l227 113l-221 -219h-154 l-55 29l330 -754v385l74 219q14 42 31.5 79t39.5 69l76 75l150 74h149l244 -82l-170 -170l-152 76h-135q-26 -13 -60.5 -30t-76.5 -40q-9 -6 -68 -65l-69 -209l2 -463l39 117q13 29 30.5 64.5t40.5 78.5l80 78h154l168 -84l-172 -170l-78 78h-131l-64 -64l-47 -141l115 -264 h278q14 -4 41 -10.5t66 -16.5l211 -53l-172 -169l-221 73h-498q-26 -7 -119.5 -30.5t-257.5 -63.5l197 131q13 9 37.5 25.5t60.5 39.5q6 4 201 68l-146 331h-528l-139 -325h123l168 -84l-172 -169l-78 77h-207q-76 -25 -145.5 -47.5t-133.5 -43.5zM686 606h500l-252 578z " />
<glyph unicode="&#xc7;" horiz-adv-x="1733" d="M348 588v291l50 145q3 10 9 28.5t15 45.5q1 4 72 147l98 98q7 8 19 20.5t30 29.5l238 116l-72 -69l-141 -144q-3 -3 -25 -47l-47 -92l-47 -141q-11 -32 -16 -49t-6 -21v-282l69 -209l209 -209l209 -70h211l201 68v1046h-131l-136 68l-59 -58v-714q-14 -32 -32.5 -69 t-41.5 -81q-20 -20 -45.5 -44.5t-56.5 -55.5v909q29 14 66.5 33t82.5 43l222 221l151 -76h133l137 140l-118 -240l-140 -70v-1038q29 14 58.5 29t58.5 30q8 6 25.5 23.5l46.5 46.5l141 143l-78 -157q-11 -28 -39 -80l-49 -49l-98 -99q-6 -4 -49 -24l-99 -47l-145 -49 q-11 -4 -27.5 -9.5t-38.5 -13.5q-8 -2 -49 -2h-20l-62 -181h127l82 -82v-84l-153 -154h-228l-104 105h117l71 -72h131l62 61v132l-62 61h-88q7 8 7 214h-58q-186 51 -221 74q-10 7 -28 19t-44 30l-147 98q-17 31 -35.5 67.5t-38.5 80.5q-1 2 -10.5 31t-28.5 84z" />
<glyph unicode="&#xc8;" horiz-adv-x="1590" d="M209 1176l221 219h154l139 -70l228 113l-222 -219h-153l-140 69zM277 623v188l82 82h139q13 29 29.5 63t37.5 74l103 100v-616q-14 -32 -32.5 -69t-41.5 -80q-20 -20 -45.5 -45t-56.5 -56v453h-121zM348 -22l199 131q13 9 37.5 25.5t60.5 39.5q48 11 98.5 24t106.5 27 v654l49 145q3 10 9 28.5t16 45.5q36 93 72 147l51 49q6 10 24 27l150 74h149l244 -82l-170 -170l-151 76h-136q-26 -13 -60.5 -30t-76.5 -40q-2 -1 -67 -66l-70 -209v-399q10 41 32 95.5t56 123.5q3 7 9 19t16 30q18 17 37.5 36.5l41.5 41.5h154l168 -84l-172 -170l-78 78 h-131l-63 -63q-16 -44 -33 -96t-37 -113v-140q13 4 26 7.5t27 7.5h363q22 -5 100.5 -25t216.5 -55l-172 -169l-221 73h-498q-26 -7 -119.5 -30.5t-257.5 -63.5zM670 1825h203l399 -320h-123z" />
<glyph unicode="&#xc9;" horiz-adv-x="1590" d="M209 1176l221 219h154l139 -70l228 113l-222 -219h-153l-140 69zM277 623v188l82 82h139q13 29 29.5 63t37.5 74l103 100v-616q-14 -32 -32.5 -69t-41.5 -80q-20 -20 -45.5 -45t-56.5 -56v453h-121zM348 -22l199 131q13 9 37.5 25.5t60.5 39.5q48 11 98.5 24t106.5 27 v654l49 145q3 10 9 28.5t16 45.5q36 93 72 147l51 49q6 10 24 27l150 74h149l244 -82l-170 -170l-151 76h-136q-26 -13 -60.5 -30t-76.5 -40q-2 -1 -67 -66l-70 -209v-399q10 41 32 95.5t56 123.5q3 7 9 19t16 30q18 17 37.5 36.5l41.5 41.5h154l168 -84l-172 -170l-78 78 h-131l-63 -63q-16 -44 -33 -96t-37 -113v-140q13 4 26 7.5t27 7.5h363q22 -5 100.5 -25t216.5 -55l-172 -169l-221 73h-498q-26 -7 -119.5 -30.5t-257.5 -63.5zM676 1505l399 320h203l-479 -320h-123z" />
<glyph unicode="&#xca;" horiz-adv-x="1590" d="M209 1176l221 219h154l139 -70l228 113l-222 -219h-153l-140 69zM277 623v188l82 82h139q13 29 29.5 63t37.5 74l103 100v-616q-14 -32 -32.5 -69t-41.5 -80q-20 -20 -45.5 -45t-56.5 -56v453h-121zM348 -22l199 131q13 9 37.5 25.5t60.5 39.5q14 4 70 18l156 39h-21v648 l49 145q3 10 9 28.5t16 45.5q36 93 72 147l51 49q6 10 24 27l150 74h149l244 -82l-170 -170l-151 76h-136q-26 -13 -60.5 -30t-76.5 -40q-2 -1 -67 -66l-70 -209v-399q10 41 32 95.5t56 123.5q3 7 9 19t16 30q18 17 37.5 36.5l41.5 41.5h154l168 -84l-172 -170l-78 78h-131 l-63 -63q-16 -44 -33 -96t-37 -113v-140q13 4 26 7.5t27 7.5h363q22 -5 100.5 -25t216.5 -55l-172 -169l-221 73h-498q-26 -7 -119.5 -30.5t-257.5 -63.5zM619 1505l239 320h160l240 -320h-111l-209 209l-209 -209h-110z" />
<glyph unicode="&#xcb;" horiz-adv-x="1590" d="M209 1176l221 219h154l139 -70l228 113l-222 -219h-153l-140 69zM277 623v188l82 82h139q13 29 29.5 63t37.5 74l103 100v-616q-14 -32 -32.5 -69t-41.5 -80q-20 -20 -45.5 -45t-56.5 -56v453h-121zM348 -22l199 131q13 9 37.5 25.5t60.5 39.5q14 4 70 18l156 39h-21v648 l49 145q3 10 9 28.5t16 45.5q36 93 72 147l51 49q6 10 24 27l150 74h149l244 -82l-170 -170l-151 76h-136q-26 -13 -60.5 -30t-76.5 -40q-2 -1 -67 -66l-70 -209v-399q10 41 32 95.5t56 123.5q3 7 9 19t16 30q18 17 37.5 36.5l41.5 41.5h154l168 -84l-172 -170l-78 78h-131 l-63 -63q-16 -44 -33 -96t-37 -113v-140q13 4 26 7.5t27 7.5h363q22 -5 100.5 -25t216.5 -55l-172 -169l-221 73h-498q-26 -7 -119.5 -30.5t-257.5 -63.5zM551 1661l172 170l172 -170l-172 -86zM1053 1661l172 170l172 -170l-172 -86z" />
<glyph unicode="&#xcc;" horiz-adv-x="1375" d="M66 -42l145 142q10 13 28 31t44 43l149 74h152l287 -144h129l65 132v643l74 221l217 219l-115 -232v-716l-73 -150q-29 -29 -65 -64.5t-79 -78.5l-4 -6h-6l-143 -72h-224l-143 72h-207zM281 1176l221 219h223q28 -9 80.5 -26.5l130.5 -43.5l230 113l-222 -219h-223 l-211 69zM375 1753h209l479 -319h-129zM492 623v188l82 82h139q13 29 30 63t38 74l102 100v-544q-14 -32 -32.5 -69t-41.5 -81q-20 -20 -45.5 -44.5t-56.5 -55.5v381h-121z" />
<glyph unicode="&#xcd;" horiz-adv-x="1375" d="M66 -42l145 142q10 13 28 31t44 43l149 74h152l287 -144h129l65 132v643l74 221l217 219l-115 -232v-716l-73 -150q-29 -29 -65 -64.5t-79 -78.5l-4 -6h-6l-143 -72h-224l-143 72h-207zM281 1176l221 219h223q28 -9 80.5 -26.5l130.5 -43.5l230 113l-222 -219h-223 l-211 69zM383 1434l479 319h209l-559 -319h-129zM492 623v188l82 82h139q13 29 30 63t38 74l102 100v-544q-14 -32 -32.5 -69t-41.5 -81q-20 -20 -45.5 -44.5t-56.5 -55.5v381h-121z" />
<glyph unicode="&#xce;" horiz-adv-x="1375" d="M66 -42l145 142q10 13 28 31t44 43l149 74h152l287 -144h129l65 132v643l74 221l217 219l-115 -232v-716l-73 -150q-29 -29 -65 -64.5t-79 -78.5l-4 -6h-6l-143 -72h-224l-143 72h-207zM281 1176l221 219h223q28 -9 80.5 -26.5l130.5 -43.5l230 113l-222 -219h-223 l-211 69zM326 1434l319 319h156l319 -319h-116l-281 211l-280 -211h-117zM492 623v188l82 82h139q13 29 30 63t38 74l102 100v-544q-14 -32 -32.5 -69t-41.5 -81q-20 -20 -45.5 -44.5t-56.5 -55.5v381h-121z" />
<glyph unicode="&#xcf;" horiz-adv-x="1375" d="M66 -42l145 142q10 13 28 31t44 43l149 74h152l287 -144h129l65 132v643l74 221l217 219l-115 -232v-716l-73 -150q-29 -29 -65 -64.5t-79 -78.5l-4 -6h-6l-143 -72h-224l-143 72h-207zM264 1589l172 170l172 -170l-172 -86zM281 1176l221 219h223q28 -9 80.5 -26.5 l130.5 -43.5l230 113l-222 -219h-223l-211 69zM492 623v188l82 82h139q13 29 30 63t38 74l102 100v-544q-14 -32 -32.5 -69t-41.5 -81q-20 -20 -45.5 -44.5t-56.5 -55.5v381h-121zM838 1589l172 170l172 -170l-172 -86z" />
<glyph unicode="&#xd1;" horiz-adv-x="1805" d="M232 -19l131 128q8 9 24 25.5t39 39.5l137 68v403h-120l-95 -94v188l82 82h133v469h-120l-138 -139l-24 25q60 63 145 145q33 17 70.5 35.5t79.5 38.5h151l150 -76q49 -72 147 -219q14 -28 35.5 -67.5t52.5 -92.5l35 -33q2 -3 6.5 -7t10.5 -9q11 -7 22.5 -13.5 t22.5 -11.5l92 -45h135l131 66v260h-59l-168 84l168 168l151 -76h133l137 139l-118 -239l-152 -76h-59v-1156q-40 19 -82 39.5t-88 43.5q-11 11 -48 47.5t-100 99.5l-141 285l-135 67h-279l-131 -65v-260h203l168 -84l-172 -169l-78 77h-207zM592 1438l78 157q11 28 39 80 q34 33 71.5 70.5l79.5 79.5h82l287 -144h133l209 211l-78 -157q-11 -28 -39 -80q-34 -33 -71.5 -70.5l-79.5 -79.5h-82l-287 144h-133zM596 545l123 61h295l96 -49q-32 52 -78 129t-108 182q-29 64 -72 144q-8 15 -139 211l-117 57v-735zM1159 854q37 -68 92.5 -167 t131.5 -232q7 -14 141 -213l43 -43v651l-123 -62h-151z" />
<glyph unicode="&#xd2;" horiz-adv-x="1876" d="M348 659v220l50 145q3 10 9 28.5t15 45.5q1 4 72 147l98 98q7 8 19 20.5t30 29.5l238 116l-72 -69l-141 -144q-3 -3 -25 -47l-47 -92l-47 -141q-11 -32 -16 -49t-6 -21v-354q2 -7 7 -24t15 -46l47 -141l47 -92q3 -8 9 -19.5t16 -27.5l92 -92l45 -48q44 -16 96 -33 t113 -36h139l209 69l137 138l138 342l-127 63h-64l-131 -65v-492h-33v1260q-31 -22 -78.5 -53.5t-111.5 -73.5q-14 -5 -30.5 -10.5t-33.5 -10.5v-686q-14 -32 -32 -69t-41 -80l-103 -101v912q49 14 104.5 32.5t118.5 40.5l207 137v19l13 -6l71 71q37 -17 76.5 -36.5 t81.5 -40.5l147 -148l72 -147q4 -10 10 -28.5t15 -45.5l49 -145v-220l-49 -145q-3 -10 -9 -28.5t-16 -45.5q-2 -5 -72 -147l-98 -98q-7 -8 -19.5 -20.5l-29.5 -29.5l-146 -71l-221 -74h-147l-146 49q-10 3 -28.5 9t-44.5 16q-2 1 -39 18.5t-109 52.5l-98 99q-8 8 -20.5 20 t-28.5 29l-72 147q-5 19 -11 37t-13 37zM733 1825h209l480 -320h-129zM1313 616l123 62h80l123 -62v306l-123 -62h-80l-123 62v-306zM1313 958l131 -65h64l124 61l-204 340l-115 58v-394z" />
<glyph unicode="&#xd3;" horiz-adv-x="1876" d="M348 659v220l50 145q3 10 9 28.5t15 45.5q1 4 72 147l98 98q7 8 19 20.5t30 29.5l228 112h-127l479 320h209l-369 -211q-25 -14 -71 -40t-113 -65q-3 -2 -21 -19.5t-51 -51.5l-139 -142q-3 -3 -25 -47l-47 -92q-4 -14 -9.5 -31.5t-12.5 -38.5l-47 -141v-354q2 -7 7 -24 t15 -46l47 -141l47 -92q3 -8 9 -19.5t16 -27.5l92 -92l45 -48q44 -16 96 -33t113 -36h139l209 69l137 138l138 342l-127 63h-64l-131 -65v-492h-33v1260q-31 -22 -78.5 -53.5t-111.5 -73.5q-14 -5 -30.5 -10.5t-33.5 -10.5v-686q-14 -32 -32 -69t-41 -80l-103 -101v912 q49 14 104.5 32.5t118.5 40.5l207 137v19l13 -6l71 71q37 -17 76.5 -36.5t81.5 -40.5l147 -148l72 -147q4 -10 10 -28.5t15 -45.5l49 -145v-220l-49 -145q-3 -10 -9 -28.5t-16 -45.5q-2 -5 -72 -147l-98 -98q-7 -8 -19.5 -20.5l-29.5 -29.5l-146 -71l-221 -74h-147l-146 49 q-10 3 -28.5 9t-44.5 16q-2 1 -39 18.5t-109 52.5l-98 99q-8 8 -20.5 20t-28.5 29l-72 147q-5 19 -11 37t-13 37zM1313 616l123 62h80l123 -62v306l-123 -62h-80l-123 62v-306zM1313 958l131 -65h64l124 61l-204 340l-115 58v-394z" />
<glyph unicode="&#xd4;" horiz-adv-x="1876" d="M348 659v220l50 145q3 10 9 28.5t15 45.5q1 4 72 147l98 98q7 8 19 20.5t30 29.5l238 116l-72 -69l-141 -144q-3 -3 -25 -47l-47 -92l-47 -141q-11 -32 -16 -49t-6 -21v-354q2 -7 7 -24t15 -46l47 -141l47 -92q3 -8 9 -19.5t16 -27.5l92 -92l45 -48q44 -16 96 -33 t113 -36h139l209 69l137 138l138 342l-127 63h-64l-131 -65v-492h-33v1260q-31 -22 -78.5 -53.5t-111.5 -73.5q-14 -5 -30.5 -10.5t-33.5 -10.5v-686q-14 -32 -32 -69t-41 -80l-103 -101v912q49 14 104.5 32.5t118.5 40.5l207 137v19l13 -6l71 71q37 -17 76.5 -36.5 t81.5 -40.5l147 -148l72 -147q4 -10 10 -28.5t15 -45.5l49 -145v-220l-49 -145q-3 -10 -9 -28.5t-16 -45.5q-2 -5 -72 -147l-98 -98q-7 -8 -19.5 -20.5l-29.5 -29.5l-146 -71l-221 -74h-147l-146 49q-10 3 -28.5 9t-44.5 16q-2 1 -39 18.5t-109 52.5l-98 99q-8 8 -20.5 20 t-28.5 29l-72 147q-5 19 -11 37t-13 37zM684 1505l320 320h155l320 -320h-117l-280 211l-281 -211h-117zM1313 616l123 62h80l123 -62v306l-123 -62h-80l-123 62v-306zM1313 958l131 -65h64l124 61l-204 340l-115 58v-394z" />
<glyph unicode="&#xd5;" horiz-adv-x="1876" d="M348 659v220l50 145q3 10 9 28.5t15 45.5q1 4 72 147l98 98q7 8 19 20.5t30 29.5l238 116l-72 -69l-141 -144q-3 -3 -25 -47l-47 -92l-47 -141q-11 -32 -16 -49t-6 -21v-354q2 -7 7 -24t15 -46l47 -141l47 -92q3 -8 9 -19.5t16 -27.5l92 -92l45 -48q44 -16 96 -33 t113 -36h139l209 69l137 138l138 342l-127 63h-64l-131 -65v-492h-33v1260q-31 -22 -78.5 -53.5t-111.5 -73.5q-14 -5 -30.5 -10.5t-33.5 -10.5v-686q-14 -32 -32 -69t-41 -80l-103 -101v912q49 14 104.5 32.5t118.5 40.5l207 137v19l13 -6l71 71q37 -17 76.5 -36.5 t81.5 -40.5l147 -148l72 -147q4 -10 10 -28.5t15 -45.5l49 -145v-220l-49 -145q-3 -10 -9 -28.5t-16 -45.5q-2 -5 -72 -147l-98 -98q-7 -8 -19.5 -20.5l-29.5 -29.5l-146 -71l-221 -74h-147l-146 49q-10 3 -28.5 9t-44.5 16q-2 1 -39 18.5t-109 52.5l-98 99q-8 8 -20.5 20 t-28.5 29l-72 147q-5 19 -11 37t-13 37zM707 1593v76l78 156h157l287 -144h61l62 62v65h33v-77q-6 -11 -25.5 -49.5t-52.5 -104.5h-158l-287 143h-61l-61 -61v-66h-33zM1313 616l123 62h80l123 -62v306l-123 -62h-80l-123 62v-306zM1313 958l131 -65h64l124 61l-204 340 l-115 58v-394z" />
<glyph unicode="&#xd6;" horiz-adv-x="1876" d="M348 659v220l50 145q3 10 9 28.5t15 45.5q1 4 72 147l98 98q7 8 19 20.5t30 29.5l238 116l-72 -69l-141 -144q-3 -3 -25 -47l-47 -92l-47 -141q-11 -32 -16 -49t-6 -21v-354q2 -7 7 -24t15 -46l47 -141l47 -92q3 -8 9 -19.5t16 -27.5l92 -92l45 -48q44 -16 96 -33 t113 -36h139l209 69l137 138l138 342l-127 63h-64l-131 -65v-492h-33v1260q-31 -22 -78.5 -53.5t-111.5 -73.5q-14 -5 -30.5 -10.5t-33.5 -10.5v-686q-14 -32 -32 -69t-41 -80l-103 -101v912q49 14 104.5 32.5t118.5 40.5l207 137v19l13 -6l71 71q37 -17 76.5 -36.5 t81.5 -40.5l147 -148l72 -147q4 -10 10 -28.5t15 -45.5l49 -145v-220l-49 -145q-3 -10 -9 -28.5t-16 -45.5q-2 -5 -72 -147l-98 -98q-7 -8 -19.5 -20.5l-29.5 -29.5l-146 -71l-221 -74h-147l-146 49q-10 3 -28.5 9t-44.5 16q-2 1 -39 18.5t-109 52.5l-98 99q-8 8 -20.5 20 t-28.5 29l-72 147q-5 19 -11 37t-13 37zM623 1661l172 170l172 -170l-172 -86zM1196 1661l172 170l172 -170l-172 -86zM1313 616l123 62h80l123 -62v306l-123 -62h-80l-123 62v-306zM1313 958l131 -65h64l124 61l-204 340l-115 58v-394z" />
<glyph unicode="&#xd9;" horiz-adv-x="1733" d="M209 1247l221 219h152l211 -69l229 112l-221 -219h-152l-210 70zM348 588v219q0 18 9 38q8 16 11.5 25t4.5 11l49 145q4 8 15 31t30 61l92 187l-71 -287q-5 -20 -13.5 -55.5t-21.5 -88.5v-139q2 -5 7 -22.5t15 -46.5l47 -142l48 -92q7 -17 24 -47l92 -92l45 -47l209 -70 h269v1038l-203 -51h20v-577q-14 -32 -32 -69t-41 -81q-20 -20 -46 -44.5t-57 -55.5v688l76 154l197 49q25 6 96 24l139 70l154 152q68 -68 113 -95q5 -4 39.5 -21.5t99.5 -49.5l-164 -82v-918l65 -131h101l-183 -181l-147 144q-44 -24 -133 -65q-7 -2 -35.5 -12t-79.5 -27 l-104 -35h-220q-52 17 -106.5 35.5t-114.5 38.5l-49 49l-100 98q-3 3 -25 49l-47 99l-49 145q-2 4 -5.5 13t-10.5 23q-9 19 -9 38zM662 1825h209l479 -320h-129zM1241 182l183 62v401h-183v-463zM1241 678h183v182h-183v-182zM1241 893h183v336l-60 57l-123 -61v-332z" />
<glyph unicode="&#xda;" horiz-adv-x="1733" d="M209 1247l221 219h152l211 -69l229 112l-221 -219h-152l-210 70zM348 588v219q0 18 9 38q8 16 11.5 25t4.5 11l49 145q4 8 15 31t30 61l92 187l-71 -287q-5 -20 -13.5 -55.5t-21.5 -88.5v-139q2 -5 7 -22.5t15 -46.5l47 -142l48 -92q7 -17 24 -47l92 -92l45 -47l209 -70 h269v1038l-203 -51h20v-577q-14 -32 -32 -69t-41 -81q-20 -20 -46 -44.5t-57 -55.5v688l76 154l197 49q25 6 96 24l139 70l154 152q68 -68 113 -95q5 -4 39.5 -21.5t99.5 -49.5l-164 -82v-918l65 -131h101l-183 -181l-147 144q-44 -24 -133 -65q-7 -2 -35.5 -12t-79.5 -27 l-104 -35h-220q-52 17 -106.5 35.5t-114.5 38.5l-49 49l-100 98q-3 3 -25 49l-47 99l-49 145q-2 4 -5.5 13t-10.5 23q-9 19 -9 38zM670 1505l479 320h209l-559 -320h-129zM1241 182l183 62v401h-183v-463zM1241 678h183v182h-183v-182zM1241 893h183v336l-60 57l-123 -61 v-332z" />
<glyph unicode="&#xdb;" horiz-adv-x="1733" d="M209 1247l221 219h152l211 -69l229 112l-221 -219h-152l-210 70zM348 588v219q0 18 9 38q8 16 11.5 25t4.5 11l49 145q4 8 15 31t30 61l92 187l-71 -287q-5 -20 -13.5 -55.5t-21.5 -88.5v-139q2 -5 7 -22.5t15 -46.5l47 -142l48 -92q7 -17 24 -47l92 -92l45 -47l209 -70 h269v1038l-203 -51h20v-577q-14 -32 -32 -69t-41 -81q-20 -20 -46 -44.5t-57 -55.5v688l76 154l197 49q25 6 96 24l139 70l154 152q68 -68 113 -95q5 -4 39.5 -21.5t99.5 -49.5l-164 -82v-918l65 -131h101l-183 -181l-147 144q-44 -24 -133 -65q-7 -2 -35.5 -12t-79.5 -27 l-104 -35h-220q-52 17 -106.5 35.5t-114.5 38.5l-49 49l-100 98q-3 3 -25 49l-47 99l-49 145q-2 4 -5.5 13t-10.5 23q-9 19 -9 38zM613 1505l319 320h156l319 -320h-117l-280 211l-281 -211h-116zM1241 182l183 62v401h-183v-463zM1241 678h183v182h-183v-182zM1241 893h183 v336l-60 57l-123 -61v-332z" />
<glyph unicode="&#xdc;" horiz-adv-x="1733" d="M209 1247l221 219h152l211 -69l229 112l-221 -219h-152l-210 70zM348 588v219q0 18 9 38q8 16 11.5 25t4.5 11l49 145q4 8 15 31t30 61l92 187l-71 -287q-5 -20 -13.5 -55.5t-21.5 -88.5v-139q2 -5 7 -22.5t15 -46.5l47 -142l48 -92q7 -17 24 -47l92 -92l45 -47l209 -70 h269v1038l-203 -51h20v-577q-14 -32 -32 -69t-41 -81q-20 -20 -46 -44.5t-57 -55.5v688l76 154l197 49q25 6 96 24l139 70l154 152q68 -68 113 -95q5 -4 39.5 -21.5t99.5 -49.5l-164 -82v-918l65 -131h101l-183 -181l-147 144q-44 -24 -133 -65q-7 -2 -35.5 -12t-79.5 -27 l-104 -35h-220q-52 17 -106.5 35.5t-114.5 38.5l-49 49l-100 98q-3 3 -25 49l-47 99l-49 145q-2 4 -5.5 13t-10.5 23q-9 19 -9 38zM551 1661l172 170l172 -170l-172 -86zM1125 1661l172 170l172 -170l-172 -86zM1241 182l183 62v401h-183v-463zM1241 678h183v182h-183v-182z M1241 893h183v336l-60 57l-123 -61v-332z" />
<glyph unicode="&#xdd;" horiz-adv-x="1661" d="M277 623v188l82 82h133v410q-16 32 -33.5 66.5t-36.5 70.5l-141 141l158 -78q11 -5 30.5 -15t48.5 -24l76 -75l74 -150v-991h254v999q39 10 95 28t130 46l92 47q8 3 19.5 9t27.5 16q13 10 154 151q68 -68 113 -95q5 -4 39.5 -21.5t99.5 -49.5l-164 -82v-1498 q-17 -35 -35.5 -72.5t-38.5 -76.5q-2 -3 -153 -154l-51 27l-103 49l-188 47q-14 5 -38 11.5t-57 13.5h-489l418 104h434l205 -68l63 127v206l-133 199q-89 -27 -201 -66l-221 -146l-51 24l-100 51l-142 47q-17 8 -69 22h-283l197 99v475h-121zM670 1505l479 320h209 l-559 -320h-129zM955 244l198 -68l199 68v336l-131 65h-135l-131 -65v-336zM955 616l122 62h152l123 -62v377l-123 -61h-152l-122 61v-377zM955 1030l131 -65h135l131 65v270l-59 58l-43 -23l-91 -43l-204 -69v-193z" />
<glyph unicode="&#xdf;" horiz-adv-x="1231" d="M295 143l197 99v1149l98 24l199 51l153 76l82 -82q14 -29 32.5 -66l41.5 -83v-80l-76 -152l-86 -43h6l152 -75l76 -152v-655q-32 -31 -68 -67.5t-78 -80.5q-5 -10 -22.5 -44t-46.5 -92v-205l165 -166h-120l-78 156v221q0 33 36 143q36 109 36 143v639l-68 135l-160 80 l41.5 41.5l44.5 44.5q4 7 68 133q-12 26 -29 58.5t-39 74.5q-1 2 -61 62l-123 -62v-1126l156 -78l-172 -169q-76 74 -82 79q-53 27 -138 69h-137z" />
<glyph unicode="&#xe0;" horiz-adv-x="1231" d="M342 877l166 165l82 -79q7 -5 41.5 -22.5t97.5 -49.5q9 -1 31 -8q5 1 12 3t17 5q28 14 62.5 31.5t76.5 40.5l82 79l166 -165l-78 -78v-561l61 -62h105l-182 -181l-160 159v55l-191 -64l-147 -148l-160 79l-76 151v152q17 35 35.5 72l38.5 77q28 27 61.5 60.5l73.5 73.5z M453 379l67 -135l136 -68h65l201 68v549l-164 55q-35 -13 -78.5 -28t-97.5 -32h-107l260 -258l-24 -24l-131 133l-127 -127v-133zM455 1538h203l399 -319h-123z" />
<glyph unicode="&#xe1;" horiz-adv-x="1231" d="M342 877l166 165l82 -79q7 -5 41.5 -22.5t97.5 -49.5q9 -1 31 -8q5 1 12 3t17 5q28 14 62.5 31.5t76.5 40.5l82 79l166 -165l-78 -78v-561l61 -62h105l-182 -181l-160 159v55l-191 -64l-147 -148l-160 79l-76 151v152q17 35 35.5 72l38.5 77q28 27 61.5 60.5l73.5 73.5z M453 379l67 -135l136 -68h65l201 68v549l-164 55q-35 -13 -78.5 -28t-97.5 -32h-107l260 -258l-24 -24l-131 133l-127 -127v-133zM461 1219l399 319h203l-479 -319h-123z" />
<glyph unicode="&#xe2;" horiz-adv-x="1231" d="M342 877l166 165l82 -79q7 -5 41.5 -22.5t97.5 -49.5q9 -1 31 -8q5 1 12 3t17 5q28 14 62.5 31.5t76.5 40.5l82 79l166 -165l-78 -78v-561l61 -62h105l-182 -181l-160 159v55l-191 -64l-147 -148l-160 79l-76 151v152q17 35 35.5 72l38.5 77q28 27 61.5 60.5l73.5 73.5z M453 379l67 -135l136 -68h65l201 68v549l-164 55q-35 -13 -78.5 -28t-97.5 -32h-107l260 -258l-24 -24l-131 133l-127 -127v-133zM475 1219l240 319h160l239 -319h-110l-209 208l-209 -208h-111z" />
<glyph unicode="&#xe3;" horiz-adv-x="1231" d="M342 877l166 165l82 -79q7 -5 41.5 -22.5t97.5 -49.5q9 -1 31 -8q5 1 12 3t17 5q28 14 62.5 31.5t76.5 40.5l82 79l166 -165l-78 -78v-561l61 -62h105l-182 -181l-160 159v55l-191 -64l-147 -148l-160 79l-76 151v152q17 35 35.5 72l38.5 77q28 27 61.5 60.5l73.5 73.5z M420 1307v75l78 156h158l286 -143h62l61 61v66h33v-78q-6 -11 -25.5 -49.5t-52.5 -104.5h-158l-286 144h-62l-61 -62v-65h-33zM453 379l67 -135l136 -68h65l201 68v549l-164 55q-35 -13 -78.5 -28t-97.5 -32h-107l260 -258l-24 -24l-131 133l-127 -127v-133z" />
<glyph unicode="&#xe4;" horiz-adv-x="1231" d="M336 1374l172 170l172 -170l-172 -86zM342 877l166 165l82 -79q7 -5 41.5 -22.5t97.5 -49.5q9 -1 31 -8q5 1 12 3t17 5q28 14 62.5 31.5t76.5 40.5l82 79l166 -165l-78 -78v-561l61 -62h105l-182 -181l-160 159v55l-191 -64l-147 -148l-160 79l-76 151v152q17 35 35.5 72 l38.5 77q28 27 61.5 60.5l73.5 73.5zM453 379l67 -135l136 -68h65l201 68v549l-164 55q-35 -13 -78.5 -28t-97.5 -32h-107l260 -258l-24 -24l-131 133l-127 -127v-133zM838 1374l172 170l172 -170l-172 -86z" />
<glyph unicode="&#xe5;" horiz-adv-x="1231" d="M342 877l166 165l82 -79q7 -5 41.5 -22.5t97.5 -49.5q9 -1 31 -8q5 1 12 3t17 5q28 14 62.5 31.5t76.5 40.5l82 79l166 -165l-78 -78v-561l61 -62h105l-182 -181l-160 159v55l-191 -64l-147 -148l-160 79l-76 151v152q17 35 35.5 72l38.5 77q28 27 61.5 60.5l73.5 73.5z M453 379l67 -135l136 -68h65l201 68v549l-164 55q-35 -13 -78.5 -28t-97.5 -32h-107l260 -258l-24 -24l-131 133l-127 -127v-133zM563 1300v156l82 82h156l82 -82v-156l-82 -81h-156zM596 1313l62 -62h131l61 62v131l-61 61h-131l-62 -61v-131z" />
<glyph unicode="&#xe6;" horiz-adv-x="1518" d="M342 877l166 165l82 -79q7 -5 41.5 -22.5t97.5 -49.5q9 -1 31 -8q5 1 12 3t17 5q28 14 62.5 31.5t76.5 40.5l82 79l78 -77h133l151 75l236 -311l-510 -293v-194l131 -66h137l-135 -67q-9 -5 -25.5 -13.5t-41.5 -21.5q-1 -1 -22.5 -22l-64.5 -63q-14 31 -34.5 71t-46.5 90 q-1 2 -62 63l-203 -68l-147 -148l-160 79l-76 151v152l72 145l137 138zM453 379l67 -135l136 -68h65l201 68v549l-164 55q-35 -13 -78.5 -28t-97.5 -32h-107l260 -258l-24 -24l-131 133l-127 -127v-133zM1098 475l324 184l-201 269l-123 -62v-391z" />
<glyph unicode="&#xe7;" horiz-adv-x="1016" d="M223 143l197 99v647l297 76q9 2 154 75q18 -19 37.5 -38t39.5 -39q4 -3 138 -70h137l-209 -105h-154l-141 140l-123 -62v-624l131 -66h137l-135 -67q-15 -8 -31.5 -16.5t-35.5 -18.5q-20 -19 -37 -35.5t-31 -30.5l-63 -189h127l82 -82v-84l-154 -154h-227l-105 105h117 l72 -72h131l61 61v132l-61 61h-88l6 18v274l-131 65h-138z" />
<glyph unicode="&#xe8;" horiz-adv-x="1016" d="M223 143l197 99v647l297 76q9 2 154 75l235 -311l-510 -293v-194l131 -66h137l-135 -67q-15 -8 -31.5 -16.5t-35.5 -18.5q-6 -5 -82 -79q-73 72 -96 86q-1 1 -31.5 16t-91.5 46h-138zM383 1538h203l399 -319h-123zM596 475l324 184l-201 269l-123 -62v-391z" />
<glyph unicode="&#xe9;" horiz-adv-x="1016" d="M223 143l197 99v647l297 76q9 2 154 75l235 -311l-510 -293v-194l131 -66h137l-135 -67q-15 -8 -31.5 -16.5t-35.5 -18.5q-6 -5 -82 -79q-73 72 -96 86q-1 1 -31.5 16t-91.5 46h-138zM461 1219l399 319h203l-479 -319h-123zM596 475l324 184l-201 269l-123 -62v-391z" />
<glyph unicode="&#xea;" horiz-adv-x="1016" d="M223 143l197 99v647l297 76q9 2 154 75l235 -311l-510 -293v-194l131 -66h137l-135 -67q-15 -8 -31.5 -16.5t-35.5 -18.5q-6 -5 -82 -79q-73 72 -96 86q-1 1 -31.5 16t-91.5 46h-138zM404 1219l239 319h160l240 -319h-111l-209 208l-209 -208h-110zM596 475l324 184 l-201 269l-123 -62v-391z" />
<glyph unicode="&#xeb;" horiz-adv-x="1016" d="M223 143l197 99v647l297 76q9 2 154 75l235 -311l-510 -293v-194l131 -66h137l-135 -67q-15 -8 -31.5 -16.5t-35.5 -18.5q-6 -5 -82 -79q-73 72 -96 86q-1 1 -31.5 16t-91.5 46h-138zM336 1374l172 170l172 -170l-172 -86zM596 475l324 184l-201 269l-123 -62v-391z M766 1374l172 170l172 -170l-172 -86z" />
<glyph unicode="&#xec;" horiz-adv-x="730" d="M168 1538h203l399 -319h-123zM256 877q35 17 77 38.5t93 47.5q9 6 82 79q73 -73 82 -79q3 -2 45.5 -23t124.5 -63l-164 -82v-557l62 -62h104l-182 -181l-160 159v641z" />
<glyph unicode="&#xed;" horiz-adv-x="730" d="M246 1219l399 319h203l-479 -319h-123zM256 877q35 17 77 38.5t93 47.5q9 6 82 79q73 -73 82 -79q3 -2 45.5 -23t124.5 -63l-164 -82v-557l62 -62h104l-182 -181l-160 159v641z" />
<glyph unicode="&#xee;" horiz-adv-x="730" d="M189 1219l239 319h160l240 -319h-111l-209 208l-209 -208h-110zM256 877q35 17 77 38.5t93 47.5q9 6 82 79q73 -73 82 -79q3 -2 45.5 -23t124.5 -63l-164 -82v-557l62 -62h104l-182 -181l-160 159v641z" />
<glyph unicode="&#xef;" horiz-adv-x="730" d="M121 1374l172 170l172 -170l-172 -86zM256 877q35 17 77 38.5t93 47.5q9 6 82 79q73 -73 82 -79q3 -2 45.5 -23t124.5 -63l-164 -82v-557l62 -62h104l-182 -181l-160 159v641zM551 1374l172 170l172 -170l-172 -86z" />
<glyph unicode="&#xf1;" d="M223 143l197 99v557l-61 61h-105l182 182l160 -159v-56q34 8 82 24.5t111 39.5l92 47q13 6 47 25q7 4 82 79q71 -71 97 -87q8 -7 122 -62h137l-196 -98v-557l61 -62h105l-183 -181l-159 159v641l-132 65h-65l-201 -67v-551l156 -78l-172 -169q-73 72 -96 86 q-1 1 -31.5 16t-91.5 46h-138zM305 1151l78 158q11 28 39 80l152 149h82l286 -143h133l209 211l-77 -158q-5 -11 -15 -31t-24 -49l-152 -149h-82l-287 143h-133z" />
<glyph unicode="&#xf2;" d="M223 143l197 99v651h158q5 2 22.5 7t46.5 15l142 48l64 32t89 45q19 -19 38.5 -38t39.5 -39q4 -3 38 -20.5t99 -49.5h209l-196 -98v-652h-158q-6 -2 -23.5 -7t-46.5 -15l-141 -47q-26 -14 -64.5 -33t-89.5 -44l-77 77q-53 25 -138 69h-209zM455 1538h203l399 -319h-123z M596 242q26 -12 60.5 -29t76.5 -39l66 -68l195 66v623q-27 11 -61.5 28t-76.5 39q-14 16 -30.5 32.5t-34.5 35.5l-195 -66v-622z" />
<glyph unicode="&#xf3;" d="M223 143l197 99v651h158q5 2 22.5 7t46.5 15l142 48l64 32t89 45q19 -19 38.5 -38t39.5 -39q4 -3 38 -20.5t99 -49.5h209l-196 -98v-652h-158q-6 -2 -23.5 -7t-46.5 -15l-141 -47q-26 -14 -64.5 -33t-89.5 -44l-77 77q-53 25 -138 69h-209zM533 1219l399 319h203 l-479 -319h-123zM596 242q26 -12 60.5 -29t76.5 -39l66 -68l195 66v623q-27 11 -61.5 28t-76.5 39q-14 16 -30.5 32.5t-34.5 35.5l-195 -66v-622z" />
<glyph unicode="&#xf4;" d="M223 143l197 99v651h158q5 2 22.5 7t46.5 15l142 48l64 32t89 45q19 -19 38.5 -38t39.5 -39q4 -3 38 -20.5t99 -49.5h209l-196 -98v-652h-158q-6 -2 -23.5 -7t-46.5 -15l-141 -47q-26 -14 -64.5 -33t-89.5 -44l-77 77q-53 25 -138 69h-209zM475 1219l240 319h160 l239 -319h-110l-209 208l-209 -208h-111zM596 242q26 -12 60.5 -29t76.5 -39l66 -68l195 66v623q-27 11 -61.5 28t-76.5 39q-14 16 -30.5 32.5t-34.5 35.5l-195 -66v-622z" />
<glyph unicode="&#xf5;" d="M223 143l197 99v651h158q5 2 22.5 7t46.5 15l142 48l64 32t89 45q19 -19 38.5 -38t39.5 -39q4 -3 38 -20.5t99 -49.5h209l-196 -98v-652h-158q-6 -2 -23.5 -7t-46.5 -15l-141 -47q-26 -14 -64.5 -33t-89.5 -44l-77 77q-53 25 -138 69h-209zM420 1307v75l78 156h158 l286 -143h62l61 61v66h33v-78q-6 -11 -25.5 -49.5t-52.5 -104.5h-158l-286 144h-62l-61 -62v-65h-33zM596 242q26 -12 60.5 -29t76.5 -39l66 -68l195 66v623q-27 11 -61.5 28t-76.5 39q-14 16 -30.5 32.5t-34.5 35.5l-195 -66v-622z" />
<glyph unicode="&#xf6;" d="M223 143l197 99v651h158q5 2 22.5 7t46.5 15l142 48l64 32t89 45q19 -19 38.5 -38t39.5 -39q4 -3 38 -20.5t99 -49.5h209l-196 -98v-652h-158q-6 -2 -23.5 -7t-46.5 -15l-141 -47q-26 -14 -64.5 -33t-89.5 -44l-77 77q-53 25 -138 69h-209zM336 1374l172 170l172 -170 l-172 -86zM596 242q26 -12 60.5 -29t76.5 -39l66 -68l195 66v623q-27 11 -61.5 28t-76.5 39q-14 16 -30.5 32.5t-34.5 35.5l-195 -66v-622zM910 1374l172 170l172 -170l-172 -86z" />
<glyph unicode="&#xf7;" horiz-adv-x="1446" d="M348 502v104h1037v-104h-1037zM695 84l172 170l172 -170l-172 -85zM695 944l172 170l172 -170l-172 -86z" />
<glyph unicode="&#xf9;" d="M223 143l197 99v557l-61 61h-105l182 182l160 -159v-641l131 -66h66l201 68v551l-156 77l172 170q71 -71 97 -87q8 -7 122 -62h137l-196 -98v-557l61 -62h105l-183 -181l-159 159v55q-34 -8 -82 -24.5t-111 -39.5l-92 -47q-20 -8 -47 -24q-2 -2 -23 -21.5t-59 -57.5 q-73 72 -96 86q-1 1 -31.5 16t-91.5 46h-138zM455 1538h203l399 -319h-123z" />
<glyph unicode="&#xfa;" d="M223 143l197 99v557l-61 61h-105l182 182l160 -159v-641l131 -66h66l201 68v551l-156 77l172 170q71 -71 97 -87q8 -7 122 -62h137l-196 -98v-557l61 -62h105l-183 -181l-159 159v55q-34 -8 -82 -24.5t-111 -39.5l-92 -47q-20 -8 -47 -24q-2 -2 -23 -21.5t-59 -57.5 q-73 72 -96 86q-1 1 -31.5 16t-91.5 46h-138zM533 1219l399 319h203l-479 -319h-123z" />
<glyph unicode="&#xfb;" d="M223 143l197 99v557l-61 61h-105l182 182l160 -159v-641l131 -66h66l201 68v551l-156 77l172 170q71 -71 97 -87q8 -7 122 -62h137l-196 -98v-557l61 -62h105l-183 -181l-159 159v55q-34 -8 -82 -24.5t-111 -39.5l-92 -47q-20 -8 -47 -24q-2 -2 -23 -21.5t-59 -57.5 q-73 72 -96 86q-1 1 -31.5 16t-91.5 46h-138zM475 1219l240 319h160l239 -319h-110l-209 208l-209 -208h-111z" />
<glyph unicode="&#xfc;" d="M223 143l197 99v557l-61 61h-105l182 182l160 -159v-641l131 -66h66l201 68v551l-156 77l172 170q71 -71 97 -87q8 -7 122 -62h137l-196 -98v-557l61 -62h105l-183 -181l-159 159v55q-34 -8 -82 -24.5t-111 -39.5l-92 -47q-20 -8 -47 -24q-2 -2 -23 -21.5t-59 -57.5 q-73 72 -96 86q-1 1 -31.5 16t-91.5 46h-138zM336 1374l172 170l172 -170l-172 -86zM910 1374l172 170l172 -170l-172 -86z" />
<glyph unicode="&#xfd;" d="M223 143l197 99v557l-61 61h-105l182 182l160 -159v-641l131 -66h66l201 68v551l-156 77l172 170q71 -71 97 -87q8 -7 122 -62h137l-196 -98v-851l-74 -222q-32 -33 -68.5 -70t-79.5 -79q-35 -17 -73.5 -36.5t-83.5 -41.5l-78 78q-4 3 -38 20.5t-99 49.5h-209l209 104 h151q29 -13 66.5 -31.5t83.5 -42.5l61 -63l127 127v135q0 17 -9 37q-13 28 -15 35l-47 142v123q-34 -8 -82 -24.5t-111 -39.5l-92 -47q-20 -8 -47 -24q-2 -2 -23 -21.5t-59 -57.5q-73 72 -96 86q-1 1 -31.5 16t-91.5 46h-138zM455 1219l479 319h209l-559 -319h-129z" />
<glyph unicode="&#xff;" d="M223 143l197 99v557l-61 61h-105l182 182l160 -159v-641l131 -66h66l201 68v551l-156 77l172 170q71 -71 97 -87q8 -7 122 -62h137l-196 -98v-851l-74 -222q-32 -33 -68.5 -70t-79.5 -79q-35 -17 -73.5 -36.5t-83.5 -41.5l-78 78q-4 3 -38 20.5t-99 49.5h-209l209 104 h151q29 -13 66.5 -31.5t83.5 -42.5l61 -63l127 127v135q0 17 -9 37q-13 28 -15 35l-47 142v123q-34 -8 -82 -24.5t-111 -39.5l-92 -47q-20 -8 -47 -24q-2 -2 -23 -21.5t-59 -57.5q-73 72 -96 86q-1 1 -31.5 16t-91.5 46h-138zM336 1374l172 170l172 -170l-172 -86zM910 1374 l172 170l172 -170l-172 -86z" />
<glyph unicode="&#x104;" horiz-adv-x="1590" d="M88 -19l195 193l149 74h66l301 702l-18 -10l-68 135h-127l-66 -67l-24 24l74 74l149 74h82l68 -66l47 109l-64 145l-63 66h-131l-138 -140l-24 25l151 147l144 72h153l80 -78l502 -1147l63 -65h168l-157 -236v-128l196 -98h-288l-156 78v159l68 69l-213 481h-535 l-139 -325h123l168 -84l-172 -169l-78 77h-207zM686 606h504l-256 580z" />
<glyph unicode="&#x105;" horiz-adv-x="1231" d="M342 877l166 165l82 -79l139 -72l31 -10l29 10l139 72l82 79l166 -165l-78 -78v-561l61 -62h105l-94 -94v-126l196 -98h-289l-155 77v272l-191 -62l-147 -148l-160 79l-76 151v152l74 149l133 134zM453 379l67 -135l136 -68h65l201 68v549l-164 55l-176 -60h-107 l260 -258l-24 -24l-131 131l-127 -127v-131z" />
<glyph unicode="&#x106;" horiz-adv-x="1733" d="M348 588v291l74 219l72 147l147 148l238 116l-213 -213l-72 -139l-69 -211v-282l69 -209l209 -209l209 -70h211l201 66v1048h-131l-136 68l-59 -60v-712l-74 -150l-102 -100v909l149 76l222 221l151 -76h133l137 140l-118 -240l-140 -70v-1038l117 59l213 213l-117 -237 l-147 -148l-148 -71l-219 -74h-219l-221 74l-219 147l-74 148zM1090 1608l274 364l182 -90z" />
<glyph unicode="&#x107;" horiz-adv-x="2061" d="M223 143l197 99v647l297 76l154 75l77 -77l138 -70h137l-209 -105h-154l-141 140l-123 -62v-624l131 -66h137l-202 -102l-82 -79l-82 79l-137 69h-138zM731 1106l275 364l182 -90z" />
<glyph unicode="&#x10c;" horiz-adv-x="1733" d="M348 588v291l74 219l72 147l147 148l238 116l-213 -213l-72 -139l-69 -211v-282l69 -209l209 -209l209 -70h211l201 66v1048h-131l-136 68l-59 -60v-712l-74 -150l-102 -100v909l149 76l222 221l151 -76h133l137 140l-118 -240l-140 -70v-1038l117 59l213 213l-117 -237 l-147 -148l-148 -71l-219 -74h-219l-221 74l-219 147l-74 148zM699 1878l94 96q21 -16 92.5 -69.5t194.5 -145.5l204 205l25 -25l-297 -297z" />
<glyph unicode="&#x10d;" horiz-adv-x="2061" d="M223 143l197 99v647l297 76l154 75l77 -77l138 -70h137l-209 -105h-154l-141 140l-123 -62v-624l131 -66h137l-202 -102l-82 -79l-82 79l-137 69h-138zM340 1376l94 97q21 -16 92.5 -69.5t194.5 -146.5l205 205l25 -24l-297 -297z" />
<glyph unicode="&#x10e;" horiz-adv-x="1661" d="M205 -22l295 196l221 74h201v1114h-418l-149 74l-101 102h1047l151 -76l76 -151v-1096h-156l-135 -68l-151 -150l-152 75h-352zM348 623v188l82 82h133v59l74 150l103 100v-616l-74 -150l-103 -100v381h-120zM699 1878l94 96q21 -16 92.5 -69.5t194.5 -145.5l204 205 l25 -25l-297 -297zM955 248h57l211 -72l129 66v338l-131 65h-135l-131 -65v-332zM955 616l122 62h152l123 -62v377l-123 -61h-152l-122 61v-377zM955 1030l131 -65h135l131 65v270l-62 62h-335v-332z" />
<glyph unicode="&#x10f;" horiz-adv-x="1231" d="M223 143l197 99v647l225 74l121 61l-356 356l250 166l78 -231l432 -432v-740h-154l-213 -69l-156 -77l-77 77l-138 69h-209zM596 242l137 -68l66 -68l195 66v627l-201 200l-197 -131v-626zM901 1198l93 184v156h182l-80 -244z" />
<glyph unicode="&#x118;" horiz-adv-x="1590" d="M209 1319l221 219h154l139 -70l228 113l-222 -219h-153l-140 70zM277 623v188l82 82h133v59l73 150l103 100v-688l-74 -149l-102 -101v453h-121zM348 -22l297 196l226 57h-21v791l78 227l68 140l75 75l150 74h149l244 -82l-170 -170l-151 76h-136l-137 -70l-69 -69 l-68 -205v-471l45 129l68 139l79 78h154l168 -84l-172 -170l-78 78h-131l-65 -68l-68 -205v-211l53 15h363l317 -80l-160 -158v-130l95 -94h-189l-82 82v185l-57 19h-498z" />
<glyph unicode="&#x119;" horiz-adv-x="1016" d="M223 143l197 99v647l297 76l154 75l235 -311l-510 -293v-194l131 -66h137l-153 -84l27 -134l301 -100h-398l-76 150l-67 66l-137 69h-138zM596 475l324 184l-201 269l-123 -62v-391z" />
<glyph unicode="&#x11a;" horiz-adv-x="1590" d="M209 1319l221 219h154l139 -70l228 113l-222 -219h-153l-140 70zM277 623v188l82 82h133v59l73 150l103 100v-688l-74 -149l-102 -101v453h-121zM348 -22l297 196l226 57h-21v791l78 227l68 140l75 75l150 74h149l244 -82l-170 -170l-151 76h-136l-137 -70l-69 -69 l-68 -205v-471l45 129l68 139l79 78h154l168 -84l-172 -170l-78 78h-131l-65 -68l-68 -205v-211l53 15h363l317 -80l-172 -169l-221 73h-498zM627 1878l94 96l287 -215l205 205l24 -25l-297 -297z" />
<glyph unicode="&#x11b;" horiz-adv-x="1016" d="M223 143l197 99v647l297 76l154 75l235 -311l-510 -293v-194l131 -66h137l-202 -102l-82 -79l-82 79l-137 69h-138zM340 1376l94 97l287 -216l205 205l25 -24l-297 -297zM596 475l324 184l-201 269l-123 -62v-391z" />
<glyph unicode="&#x131;" horiz-adv-x="730" d="M256 877q35 17 77 38.5t93 47.5q9 6 82 79q73 -73 82 -79q3 -2 45.5 -23t124.5 -63l-164 -82v-557l62 -62h104l-182 -181l-160 159v641z" />
<glyph unicode="&#x141;" horiz-adv-x="1590" d="M209 1319l221 219h226l139 -70l227 113l-221 -219h-225l-140 70zM277 623v188l82 82h133v59l73 150l103 100v-688l-74 -149l-102 -101v453h-121zM348 -22l297 196l291 74h344v674l-116 -60l-138 -135v-70l-73 -149l-103 -100v688l74 149l219 219l150 74h151l168 -84 l-172 -170l-127 127v-303h309l-176 -176h-133v-688l303 -76l-172 -169l-221 73h-498zM1026 915l117 119l137 68v332h-119l-135 -136v-383z" />
<glyph unicode="&#x142;" horiz-adv-x="730" d="M211 745l209 158v328l-76 153l252 168v-518l189 142l20 -25l-209 -156v-753l131 -66h137l-202 -102l-82 -79l-82 79l-137 69h-138l197 99v620l-188 -141z" />
<glyph unicode="&#x143;" horiz-adv-x="1805" d="M232 -19l194 193l137 68v475h-120l-95 -94v188l82 82h133v541h-118l-140 -140l-24 25l145 145l150 74h151l150 -76l147 -219l66 -143l4 4l70 -70l137 -69h135l131 65v260h-59l-168 84l168 168l151 -76h133l137 140l-118 -240l-152 -76h-59v-1299l-170 83l-148 147 l-139 285l-137 67h-279l-131 -65v-260h203l168 -84l-172 -169l-78 77h-207zM596 545l123 61h295l109 -53l-199 459l-72 143l-139 211l-117 57v-878zM1018 1536l275 365l182 -91zM1123 1026l260 -571l141 -213l43 -43v794l-123 -61h-151l-150 74z" />
<glyph unicode="&#x144;" d="M223 143l197 99v557l-61 61h-105l182 182l160 -159v-54l193 62l139 72l82 79l82 -79l137 -70h137l-196 -98v-557l61 -62h105l-183 -181l-159 159v641l-132 65h-67l-199 -67v-551l156 -78l-172 -169l-82 79l-137 69h-138zM803 1034l274 365l183 -90z" />
<glyph unicode="&#x147;" horiz-adv-x="1805" d="M232 -19l194 193l137 68v475h-120l-95 -94v188l82 82h133v541h-118l-140 -140l-24 25l145 145l150 74h151l150 -76l147 -219l66 -143l4 4l70 -70l137 -69h135l131 65v260h-59l-168 84l168 168l151 -76h133l137 140l-118 -240l-152 -76h-59v-1299l-170 83l-148 147 l-139 285l-137 67h-279l-131 -65v-260h203l168 -84l-172 -169l-78 77h-207zM596 545l123 61h295l109 -53l-199 459l-72 143l-139 211l-117 57v-878zM767 1878l94 96l287 -215l205 205l24 -25l-297 -297zM1123 1026l260 -571l141 -213l43 -43v794l-123 -61h-151l-150 74z" />
<glyph unicode="&#x148;" d="M223 143l197 99v557l-61 61h-105l182 182l160 -159v-54l193 62l139 72l82 79l82 -79l137 -70h137l-196 -98v-557l61 -62h105l-183 -181l-159 159v641l-132 65h-67l-199 -67v-551l156 -78l-172 -169l-82 79l-137 69h-138zM500 1376l94 97l287 -216l205 205l25 -24 l-297 -297z" />
<glyph unicode="&#x150;" horiz-adv-x="1876" d="M348 659v291l74 219l72 148l147 147l238 117l-213 -213l-72 -139l-69 -211v-426l69 -211l72 -139l141 -142l205 -67h139l209 69l137 138l138 342l-127 63h-64l-131 -65v-492h-33v1331l-190 -127l-64 -20v-758l-73 -149l-103 -101v983l223 74l207 137v19l15 -7l69 72 l158 -78l147 -147l72 -148l74 -219v-291l-74 -219l-72 -147l-147 -148l-146 -71l-221 -74h-147l-227 78l-140 67l-147 148l-72 147zM918 2040h184l-92 -371zM1204 2040h185l-92 -371zM1313 616l123 62h80l123 -62v377l-123 -61h-80l-123 61v-377zM1313 1030l131 -65h64 l124 61l-204 340l-115 57v-393z" />
<glyph unicode="&#x151;" d="M223 143l197 99v651h154l215 70l153 77l78 -77l137 -70h209l-196 -98v-652h-154l-215 -69l-154 -77l-77 77l-138 69h-209zM559 1538h185l-92 -371zM596 242l137 -68l68 -68l193 66v623l-138 67l-67 68l-193 -66v-622zM846 1538h184l-92 -371z" />
<glyph unicode="&#x158;" horiz-adv-x="1733" d="M209 1319l221 219h226l139 -70l227 113l-221 -219h-225l-140 70zM277 623v188l82 82h133v59l73 150l103 100v-688l-74 -149l-102 -101v453h-121zM348 -22l295 196l221 74h148l244 -82l-170 -169l-152 75h-209zM699 1878l94 96q21 -16 92.5 -69.5t194.5 -145.5l204 205 l25 -25l-297 -297zM850 408v688l74 149l76 74l217 145l151 76l156 -78l76 -151v-224l-74 -149l-76 -76l-260 -129l117 -57l74 -76l215 -358l65 -66h105l-183 -181l-157 157l-144 430l-133 131l-127 -64l-69 -141zM1026 688l119 60l211 139l68 137v207l-68 135l-129 66 l-201 -134v-610z" />
<glyph unicode="&#x159;" horiz-adv-x="1016" d="M223 143l197 99v557l-61 61h-105l182 182l148 -145l287 143l77 -77l138 -70h137l-209 -105h-154l-141 140l-123 -62v-624l131 -66h137l-202 -102l-82 -79l-82 79l-137 69h-138zM340 1376l94 97q21 -16 92.5 -69.5t194.5 -146.5l205 205l25 -24l-297 -297z" />
<glyph unicode="&#x15a;" horiz-adv-x="1661" d="M205 -22l297 196l291 74h219l219 -72l-10 -29l203 308l71 209v135l-65 63l-137 70h-347l-120 -182h333l82 -82v-82l-104 -209v131l-131 65h-275l-141 -141l-149 -74h-93v127l93 -90l129 66l112 112h-178l-152 76l-75 152v114l98 -96l137 -69h275l121 182h-187l-221 74 l-78 75l-76 154l76 151l78 78l221 74h291l317 -80l-163 -162l-125 -188h403l152 -76l75 -151v-154l-219 -291l-293 -439l-223 75h-354zM453 1241l63 -63l209 -70h277l131 195l-62 61l-139 72l-211 67l-205 -67l-63 -64v-131zM946 1597l275 365l182 -90z" />
<glyph unicode="&#x15b;" horiz-adv-x="1160" d="M281 27l215 286l188 189h-180l-156 78v309l222 72l153 77l148 -73h133l137 139l-117 -236l-145 -217l-117 -116h180l156 -78v-310l-219 -71l-8 -8l-4 2l-144 -71l-147 73h-135l-140 -70l-8 14zM363 82l141 94h223l135 -67l60 57v270l-131 66h-62l-209 -209zM525 600 l131 -65h61l137 137l142 213l26 51l-6 -4h-2l-143 -72h-152l-135 68l-59 -58v-270zM660 1034l274 365l182 -90z" />
<glyph unicode="&#x160;" horiz-adv-x="1661" d="M205 -22l199 131q14 11 38.5 27.5t59.5 37.5q2 1 74.5 19.5t216.5 54.5h219q108 -35 219 -72l-10 -29l135 205q23 29 70 103l69 209v135q-57 57 -65 63q-5 3 -39 20.5t-98 49.5h-347l-120 -182h333l82 -82v-82l-104 -209v131l-131 65h-277q-29 -31 -63.5 -66t-75.5 -75 l-149 -74h-93v127l93 -90q55 25 129 66q4 2 32 30l82 82h-180l-152 76l-75 152v114q19 -20 43.5 -44t54.5 -52q11 -6 45.5 -23t91.5 -46h275l121 182h-187q-46 16 -100.5 34t-120.5 40q-38 36 -78 75l-76 154l74 149l80 80l221 74h291q22 -5 100.5 -25t216.5 -55l-108 -108 q-9 -8 -22.5 -21t-32.5 -33q-11 -17 -21 -32.5t-20 -30.5l-84 -125h403l152 -76l75 -151v-154l-73 -96l-146 -195q-13 -20 -37 -55.5t-59 -89.5l-197 -294l-223 75h-354q-26 -7 -119.5 -30.5t-257.5 -63.5zM453 1241l63 -63l209 -70h277l131 197l-35.5 35.5t-15.5 14.5 q-14 11 -58 34l-92 47q-19 10 -45 19t-58 19l-106 31l-207 -69l-63 -64v-131zM699 1878l94 96l287 -215l204 205l25 -25l-297 -297z" />
<glyph unicode="&#x161;" horiz-adv-x="1160" d="M281 27l71 96l144 190l188 189h-180l-156 78v309l76 24l150 50l149 75l148 -73h133l137 139l-78 -158q-8 -23 -39 -78l-96 -145q-7 -10 -19 -28t-30 -44l-51 -51t-66 -65h180l156 -78v-310l-223 -73l-4 -6l-4 2l-144 -71l-147 73h-135l-140 -70l-10 16zM363 84l141 92 h223l135 -67l60 57v270l-131 66h-62l-69 -70l-140 -139q-7 -10 -19.5 -27t-31.5 -43zM412 1376l94 97l287 -216l205 205l24 -24l-297 -297zM525 600l131 -65h61l137 137q5 8 16.5 25.5t30.5 45.5l95 142q1 2 7.5 14.5t18.5 36.5l-6 -4h-2l-143 -72h-152l-135 68l-59 -58 v-270z" />
<glyph unicode="&#x163;" horiz-adv-x="1733" d="M305 1223l119 239l152 76h293l430 -72h280l232 115l-217 -217l-138 -68v-1038l117 59l213 213l-117 -237l-147 -148l-148 -71l-219 -74h-219l-219 74l-147 73l-148 220l-74 221v291l72 219l74 145l28 -16l-69 -142v-350l69 -209l140 -211l139 -69l211 -70h211l201 66 v1048h-201l-45 17l-80 -80v-641l-74 -150l-102 -100v838l149 75l70 70l-348 115h-209l-137 -70zM699 1878l94 96q21 -16 92.5 -69.5t194.5 -145.5l204 205l25 -25l-297 -297z" />
<glyph unicode="&#x164;" horiz-adv-x="730" d="M221 1004v32h199v195l-76 153l252 168v-516h199v-32h-199v-762l131 -66h137l-202 -102l-82 -79l-82 79l-137 69h-138l197 99v762h-199zM615 1198l92 184v156h182l-80 -244z" />
<glyph unicode="&#x16e;" horiz-adv-x="1733" d="M209 1319l221 219h152l211 -70l229 113l-221 -219h-152l-210 70zM348 588v291l74 219l137 278l-106 -430v-211l69 -211l72 -139l137 -139l209 -70h269v1108l-207 -49h24v-649l-73 -150l-103 -100v760l76 153l293 74l139 70l154 151l82 -80l170 -86l-164 -82v-989l65 -131 h101l-183 -181l-147 144l-133 -65l-219 -74h-220l-221 74l-149 147l-72 148zM850 1731v159l160 80l158 -80l18 -159l-98 -82h-156zM1026 1815l62 -62h63l-12 117l-113 55v-110zM1241 182l183 62v401h-183v-463zM1241 678h183v254h-183v-254zM1241 965h183v335l-60 58 l-123 -62v-331z" />
<glyph unicode="&#x16f;" d="M223 143l197 99v557l-61 61h-105l182 182l160 -159v-641l131 -66h66l201 68v551l-156 77l172 170l82 -79l137 -70h137l-196 -98v-557l61 -62h105l-183 -181l-159 159v53l-191 -62l-141 -71l-82 -79l-82 79l-137 69h-138zM635 1229v160l143 71v17l177 -88v-170h-9l-73 -72 h-156zM811 1313l62 -62h49v117l-111 55v-110z" />
<glyph unicode="&#x170;" horiz-adv-x="1733" d="M209 1319l221 219h152l211 -70l229 113l-221 -219h-152l-210 70zM348 588v291l74 219l137 278l-106 -430v-211l69 -211l72 -139l137 -139l209 -70h269v1108l-207 -49h24v-649l-73 -150l-103 -100v760l76 153l293 74l139 70l154 151l82 -80l170 -86l-164 -82v-989l65 -131 h101l-183 -181l-147 144l-133 -65l-219 -74h-220l-221 74l-149 147l-72 148zM846 2040h184l-92 -371zM1133 2040h184l-92 -371zM1241 182l183 62v401h-183v-463zM1241 678h183v254h-183v-254zM1241 965h183v335l-60 58l-123 -62v-331z" />
<glyph unicode="&#x171;" d="M223 143l197 99v557l-61 61h-105l182 182l160 -159v-641l131 -66h66l201 68v551l-156 77l172 170l82 -79l137 -70h137l-196 -98v-557l61 -62h105l-183 -181l-159 159v53l-191 -62l-141 -71l-82 -79l-82 79l-137 69h-138zM559 1538h185l-92 -371zM846 1538h184l-92 -371z " />
<glyph unicode="&#x178;" horiz-adv-x="1661" d="M277 623v188l82 82h133v410q-16 32 -33.5 66.5t-36.5 70.5l-141 141l158 -78q11 -5 30.5 -15t48.5 -24l76 -75l74 -150v-991h254v999q39 10 95 28t130 46l92 47q8 3 19.5 9t27.5 16q13 10 154 151q68 -68 113 -95q5 -4 39.5 -21.5t99.5 -49.5l-164 -82v-1498 q-17 -35 -35.5 -72.5t-38.5 -76.5q-2 -3 -153 -154l-51 27l-103 49l-188 47q-14 5 -38 11.5t-57 13.5h-489l418 104h434l205 -68l63 127v206l-133 199q-89 -27 -201 -66l-221 -146l-51 24l-100 51l-142 47q-17 8 -69 22h-283l197 99v475h-121zM479 1661l173 170l172 -170 l-172 -86zM955 244l198 -68l199 68v336l-131 65h-135l-131 -65v-336zM955 616l122 62h152l123 -62v377l-123 -61h-152l-122 61v-377zM955 1030l131 -65h135l131 65v270l-59 58l-43 -23l-91 -43l-204 -69v-193zM1053 1661l172 170l172 -170l-172 -86z" />
<glyph unicode="&#x179;" horiz-adv-x="1446" d="M254 -7l240 318l143 287l144 190h-273v33h297l49 66l357 428l49 98l-101 -51l-290 -72h-291l-318 80l172 170l222 -74h426l399 80l-240 -319l-143 -287l-94 -119h295v-33h-322l-453 -565l-49 -98l101 51l290 72h291l318 -80l-172 -169l-221 73h-426zM946 1608l275 364 l182 -90z" />
<glyph unicode="&#x17a;" d="M320 -11l37 42l403 471h-252v33h281l372 436l-217 -109l-219 -74h-221l-168 84l168 168l152 -75h280l334 84l-37 -43l-403 -471h252v-33h-281l-373 -436l217 108l219 74h222l168 -84l-168 -167l-152 75h-280zM393 881l119 -60h209l211 70l152 76l-144 -35h-293l-135 67z M506 70l143 34h293l135 -67l119 119l-119 59h-208l-211 -70zM803 1034l274 365l183 -90zM930 1149l260 156l-104 53z" />
<glyph unicode="&#x17b;" horiz-adv-x="1446" d="M254 -7l240 318l143 287l144 190h-273v33h287v-14l59 80l357 428l49 98l-101 -51l-290 -72h-291l-318 80l172 170l222 -74h426l399 80l-240 -319l-143 -287l-574 -717l-49 -98l101 51l290 72h291l318 -80l-172 -169l-221 73h-426zM326 1386l256 -63h282l283 72l176 86 l-239 -47h-435l-208 69zM332 41l70 14l92 185l573 716l144 287l190 254l-70 -14l-92 -185l-360 -432l-213 -284l-144 -287zM410 57l239 47h435l209 -69l114 117l-256 63h-282l-283 -72zM778 1659v84l82 82h84l82 -82v-84l-82 -82h-84zM811 1671l62 -61h59l62 61v60l-62 61 h-59l-62 -61v-60zM1010 788v33h287v-33h-287z" />
<glyph unicode="&#x17c;" d="M320 -11l37 42l403 471h-252v33h281l372 436l-217 -109l-219 -74h-221l-168 84l168 168l152 -75h280l334 84l-37 -43l-403 -471h252v-33h-281l-373 -436l217 108l219 74h222l168 -84l-168 -167l-152 75h-280zM393 881l119 -60h209l211 70l152 76l-144 -35h-293l-135 67z M506 70l143 34h293l135 -67l119 119l-119 59h-208l-211 -70zM701 1163l94 94l94 -94l-94 -94zM746 1163l49 -49l49 49l-49 49z" />
<glyph unicode="&#x17d;" horiz-adv-x="1446" d="M254 -7l240 318l143 287l144 190h-273v33h287v-14l59 80l357 428l49 98l-101 -51l-290 -72h-291l-318 80l172 170l222 -74h426l399 80l-240 -319l-143 -287l-574 -717l-49 -98l101 51l290 72h291l318 -80l-172 -169l-221 73h-426zM326 1386l256 -63h282l283 72l176 86 l-239 -47h-435l-208 69zM332 41l70 14l92 185l573 716l144 287l190 254l-70 -14l-92 -185l-360 -432l-213 -284l-144 -287zM410 57l239 47h435l209 -69l114 117l-256 63h-282l-283 -72zM555 1878l94 96q21 -16 92.5 -69.5t194.5 -145.5l205 205l25 -25l-297 -297zM604 1882 l260 -194l50 47l-260 194zM1010 788v33h287v-33h-287z" />
<glyph unicode="&#x17e;" d="M320 -11l37 42l403 471h-252v33h281l372 436l-217 -109l-219 -74h-221l-168 84l168 168l152 -75h280l334 84l-37 -43l-403 -471h252v-33h-281l-373 -436l217 108l219 74h222l168 -84l-168 -167l-152 75h-280zM393 881l119 -60h209l211 70l152 76l-144 -35h-293l-135 67z M484 1376l94 97q20 -16 91.5 -69.5t194.5 -146.5l205 205l25 -24l-297 -297zM506 70l143 34h293l135 -67l119 119l-119 59h-208l-211 -70zM533 1380l260 -194l49 47l-260 194z" />
<glyph unicode="&#x3a9;" horiz-adv-x="1733" d="M348 0v446l33 3l41 -252l96 -95l90 -47l109 -20l61 59v60l-213 211l-71 147l-74 219v148l72 290l73 148l150 147l221 74h148l221 -74l149 -147l74 -148l72 -290v-148l-74 -219l-72 -147l-73 -74l-140 -137v-60l62 -59l192 39l62 41l35 51l47 283l32 -3v-446h-381l-81 82 v84l4 4l141 213l70 209v354l-70 283l-139 209l-138 67h-135l-137 -67l-139 -209l-70 -283v-354l70 -209l145 -217v-84l-4 -6l-78 -76v-1l-8 1h-373z" />
<glyph unicode="&#x410;" horiz-adv-x="1590" d="M88 -19l195 193l149 74h66l301 702l-18 -10l-68 135h-127l-66 -67l-24 24l74 74l149 74h82l68 -66l47 111l-64 143l-63 66h-131l-138 -140l-24 25l151 147l144 72h153l80 -78l502 -1147l63 -65h168l-165 -248h-86l-80 78l-219 495h-535l-139 -325h123l168 -84l-172 -169 l-78 77h-207zM686 606h506l-258 580z" />
<glyph unicode="&#x411;" horiz-adv-x="1733" d="M209 1319l221 219h154l139 -70l228 113l-222 -219h-153l-140 70zM277 623v188l82 82h133v59l73 150l103 100v-688l-74 -149l-102 -101v453h-121zM348 -22l297 196l226 57h-21v793l146 362l75 78l150 74h149l244 -82l-170 -170l-151 76h-136l-131 -66v-639l-73 -149 l-70 -68v-207l53 15h219l211 -70l129 64v188h-254v-199h-32v656l163 82l7 -8l217 -146l75 -149v-451h-155l-137 -70l-150 -148l-152 75h-352zM1241 463h254v182h-254v-182zM1241 678h254v51l-69 137l-62 62l-123 -62v-188z" />
<glyph unicode="&#x412;" horiz-adv-x="1733" d="M209 1319l221 219h226l139 -70l227 113l-221 -219h-225l-140 70zM277 623v188l82 82h133v59l73 150l103 100v-688l-74 -149l-102 -101v453h-121zM348 -22l295 196l221 74h291l54 -19v658l149 76l137 135v202l-65 64l-133 68l-271 -136v-639l-73 -149l-103 -100v688 l74 149l76 76l440 219l156 -78l75 -151v-154l-149 -151l-121 -60l195 -131l75 -149v-451h-155l-137 -70l-150 -148l-152 75h-352zM1241 219l125 -41l129 64v188h-254v-211zM1241 463h254v182h-254v-182zM1241 678h254v51l-133 199l-121 -62v-188z" />
<glyph unicode="&#x413;" horiz-adv-x="1661" d="M88 -19l195 193l149 74h152l287 -144h61l62 62v1079l149 76l221 221l152 -76h133l137 140l-119 -240l-151 -76h-152l-135 68l-59 -58v-1001l-76 -152l-295 -147h-152l-143 72h-137zM281 1319l221 219h225l140 -70l227 113l-221 -219h-226l-139 70zM420 623v188l82 82h133 v59l74 150l102 100v-616l-73 -150l-103 -100v381h-121z" />
<glyph unicode="&#x414;" horiz-adv-x="1805" d="M348 -22l297 196l277 70v780l74 150l102 100v-981l-90 -45h147l209 -70l62 64l71 139l70 211v354l-70 211l-71 139l-138 140l-208 69h-269v-870l-20 10h-144l-149 74l-76 76l-74 149v223l74 150l150 147l221 74h291l219 -74l147 -71l148 -148l71 -147l74 -219v-220 l-74 -219l-71 -147l-148 -148l-143 -71l-78 -77l-152 75h-352zM525 965h253v182h-253v-182zM525 1180h253v315l-116 -59l-68 -68l-69 -137v-51zM535 932l59 -117l68 -67l116 -60v244h-243z" />
<glyph unicode="&#x415;" horiz-adv-x="1590" d="M209 1319l221 219h154l139 -70l228 113l-222 -219h-153l-140 70zM277 623v188l82 82h133v59l73 150l103 100v-688l-74 -149l-102 -101v453h-121zM348 -22l297 196l205 51v797l74 219l72 148l75 75l150 74h149l244 -82l-170 -170l-151 76h-136l-137 -70l-67 -65l-70 -209 v-471l41 121l72 147l79 78h154l168 -84l-172 -170l-78 78h-131l-63 -64l-70 -209v-211l53 15h363l317 -80l-172 -169l-221 73h-498z" />
<glyph unicode="&#x416;" horiz-adv-x="1733" d="M162 -67l119 239l151 76h154l55 -53l279 573l-10 20h-402v33h385l-244 502l-10 -4l10 8l-8 16l-55 -53h-154l-151 76l-119 240l137 -140h133l156 78l86 -192l186 186h226l139 -70l227 113l-354 -352v-387l334 702l155 -78h134l137 140l-119 -240l-152 -76h-153l-55 53 l-252 -522h385v-33h-402l-10 -18l270 -555l11 4l-11 -8l9 -16l55 53h153l152 -76l119 -239l-137 139h-134l-155 -77l-86 191l-187 -186h-225l-139 70l-227 -112l354 351v387l-334 -701l-156 77h-133zM680 1337l242 -499v184l74 225l231 115h-221l-139 70zM793 176h221 l139 -70l187 95l-242 499v-258l-76 -151z" />
<glyph unicode="&#x417;" horiz-adv-x="1661" d="M205 -22l297 196l291 74h219l227 -80l197 281l-12 4l71 211v133l-202 135h-572l-221 74l-80 79v189l96 -96l209 -70h426l209 70l64 63v131l-64 64l-207 69l-209 -69l-139 -72l-82 -80l-176 174l317 80h291l221 -74l78 -75l76 -154l-67 -135l133 -68l75 -151v-154 l-512 -728l-223 73h-354zM277 801v114l98 -96l137 -69h647l82 -82v-82l-73 -148l-29 17l20 41l-153 77h-502l-152 76z" />
<glyph unicode="&#x418;" horiz-adv-x="1805" d="M234 1606l137 -140h133l152 76l168 -168l-168 -84h-60v-260l131 -65h135l138 69l69 70l4 -4l66 143l147 219l150 76h151l150 -74l145 -145l-24 -25l-137 140h-121v-541h133l82 -82v-188l-94 94h-121v-475l137 -68l195 -193l-279 91h-207l-78 -77l-172 169l168 84h203v260 l-131 65h-279l-135 -67l-141 -285l-148 -147l-170 -83v1299h-59l-152 76zM596 199l43 43l142 213l260 573l-21 -22l-149 -74h-152l-123 61v-794zM1043 553l106 53h295l123 -61v878l-117 -57l-139 -211l-72 -143z" />
<glyph unicode="&#x419;" horiz-adv-x="1948" d="M234 1606l137 -140h133l152 76l168 -168l-168 -84h-60v-260l131 -65h135l138 69l69 70l4 -4l66 143l147 219l150 76h151l150 -74l145 -145l-24 -25l-137 140h-121v-541h133l82 -82v-188l-94 94h-121v-475l137 -68l195 -193l-279 91h-207l-78 -77l-172 169l168 84h203v260 l-131 65h-279l-135 -67l-141 -285l-148 -147l-170 -83v1299h-59l-152 76zM596 199l43 43l142 213l260 573l-21 -22l-149 -74h-152l-123 61v-794zM711 1606l221 219h225l140 -70l227 113l-221 -219h-226l-139 69zM1043 553l106 53h295l123 -61v878l-117 -57l-139 -211 l-72 -143z" />
<glyph unicode="&#x41a;" horiz-adv-x="1948" d="M254 143l94 95v176l95 -95h176l-94 -94v-127l131 -65h133l135 135l70 209v856l-70 209l-64 63h-202l-133 -133v-133l141 -211l74 -147v-230l-154 -78h-156l-82 82v78h33v-65l62 -62h131l61 62v133l-141 211l-74 147v152l76 151l151 76h224l149 -74l76 -75l74 -150v-203 h204l80 -80l287 -716l64 -64h59l65 68l25 -25l-227 -224l-158 157l-287 716l-112 113v-610l-74 -150l-148 -147l-149 -74h-152l-149 74l-68 69h-176zM496 1391l72 71l-48 -24zM1139 1315l74 147l151 76h154l4 -2l143 -72l76 -75l72 -144l96 -98h-188l-80 80l-72 215l-63 63 h-134l-135 -67l-69 -140z" />
<glyph unicode="&#x41b;" horiz-adv-x="1590" d="M209 -42l217 216l150 74h151l144 -72h61l62 62v1124h-50l-133 -133v-572l-73 -149l-103 -100v309h-121l-94 -94v188l82 82h133v131l74 150l373 370l303 -303v-934l65 -131h101l-183 -181l-159 159v1003l-183 182v-1112l-73 -149l-80 -78h-82l-144 72h-206z" />
<glyph unicode="&#x41c;" horiz-adv-x="2020" d="M137 -42l218 216l149 74h152l143 -72h61l62 62v1124h-49l-133 -133v-572l-74 -149l-103 -100v309h-120l-95 -94v188l82 82h133v131l74 150l373 370l287 -287l286 287l303 -303v-934l66 -131h100l-182 -181l-160 159v563h-182v-492l-82 -82h-2l-221 -146l-164 163l78 78 v479h-182v-490l-74 -149l-80 -78h-82l-143 72h-207zM955 893h182v264l-182 182v-446zM1313 307l66 -131h55l61 62v1124h-49l-133 -133v-922zM1528 893h182v264l-182 182v-446z" />
<glyph unicode="&#x41d;" horiz-adv-x="1876" d="M281 1319l221 219h225l140 -70l227 113l-211 -209v-479h326v274l73 150l70 67l78 80l4 2h2l143 72h152l168 -84l-172 -170l-150 150h-131l-61 -62v-858l-74 -149l-102 -101v453h-326v-486h-33v1131h-203l-139 70zM348 623v188l82 82h133v59l74 150l103 100v-688l-74 -149 l-103 -101v453h-120zM410 -24l321 198l205 74h291l236 -78l-87 -173l-225 75h-354z" />
<glyph unicode="&#x41e;" horiz-adv-x="1876" d="M348 659v291l74 219l72 148l147 147l238 117l-213 -213l-72 -139l-69 -211v-426l69 -211l72 -139l137 -140l209 -69h139l209 69l137 138l138 342l-127 63h-64l-131 -65v-492h-33v1331l-190 -127l-64 -20v-758l-73 -149l-103 -101v983l223 74l207 137v19l13 -7l71 72 l158 -78l147 -147l72 -148l74 -219v-291l-74 -219l-72 -147l-147 -148l-146 -71l-221 -74h-147l-219 74l-148 71l-147 148l-72 147zM1313 616l123 62h80l123 -62v377l-123 -61h-80l-123 61v-377zM1313 1030l131 -65h64l124 61l-204 340l-115 57v-393z" />
<glyph unicode="&#x41f;" horiz-adv-x="1661" d="M277 727v188l94 -94h121v475l-197 99h283l211 69l151 76l221 -147l209 -70h158v-1081l164 -82l-170 -86l-82 -79l-152 150l-366 148v997h-254v-991l-74 -149l-76 -76l-237 -116l141 140l70 138v409h-133zM955 313l340 -135l57 60v270l-131 65h-135l-131 -65v-195z M955 545l122 61h152l123 -61v377l-123 -62h-152l-122 62v-377zM955 958l131 -65h135l131 65v336l-199 68l-198 -68v-336z" />
<glyph unicode="&#x420;" horiz-adv-x="1590" d="M183 -36l309 204v549h-121l-94 -94v188l82 82h133v410l-70 137l-141 141l237 -117l76 -75l74 -150v-45l190 127l297 223l301 -303v-1020l-143 -71v-13l-12 4l-144 -144l-151 75h-123v-341h-33v1545l-182 -121v-1502l-176 -176v589zM883 248h201l196 -66v398l-131 65h-135 l-131 -65v-332zM883 616l123 62h151l123 -62v377l-123 -61h-151l-123 61v-377zM883 1030l131 -65h135l131 65v127l-205 205h-108l-84 -64v-268z" />
<glyph unicode="&#x421;" horiz-adv-x="1733" d="M348 588v291l74 219l72 147l147 148l238 116l-213 -213l-72 -139l-69 -211v-282l69 -209l209 -209l209 -70h211l211 70l139 71l213 213l-117 -237l-147 -148l-148 -71l-219 -74h-219l-221 74l-219 147l-74 148zM922 336v909l149 76l222 221l151 -76h133l137 140 l-118 -240l-152 -76h-151l-136 68l-59 -58v-714l-74 -150z" />
<glyph unicode="&#x422;" horiz-adv-x="1805" d="M305 1223l119 239l152 76h293l430 -72h280l232 115l-217 -217l-150 -74h-221l-47 17l-78 -78v-787l-74 -149l-102 -100v981l149 75l70 68l-348 117h-209l-137 -70zM639 219l228 -113l139 70h225l221 -218l-227 112l-139 -70h-226z" />
<glyph unicode="&#x423;" horiz-adv-x="1661" d="M277 623v188l82 82h133v410l-70 137l-141 141l237 -117l76 -75l74 -150v-991h254v999l225 74l139 72l154 151l82 -80l170 -86l-164 -82v-1498l-74 -149l-153 -154l-154 76l-283 72h-489l418 104h434l205 -68l63 127v206l-133 199l-201 -66l-221 -146l-151 75l-211 69 h-283l197 99v475h-121zM955 244l198 -68l199 68v336l-131 65h-135l-131 -65v-336zM955 616l122 62h152l123 -62v377l-123 -61h-152l-122 61v-377zM955 1030l131 -65h135l131 65v270l-59 58l-134 -66l-204 -69v-193z" />
<glyph unicode="&#x424;" horiz-adv-x="2307" d="M420 221v1020l301 303l305 -237v-1260l183 121v1135l-70 137l-141 141l237 -117l76 -75l74 -150v-45l196 132q28 20 100.5 74.5t190.5 143.5l301 -303v-1020l-143 -71v-13l-12 4l-144 -144l-151 75h-123v-341h-33v1545l-182 -121v-1502l-176 -176v589l-183 -62v-273h-32 v264l-95 -31l95 61v47h-123l-152 -75l-143 144l-13 -4v13zM596 182l197 66h201v332l-132 65h-135l-131 -65v-398zM596 616l123 62h152l123 -62v377l-123 -61h-152l-123 61v-377zM596 1030l131 -65h135l132 65v268l-84 64h-109l-205 -205v-127zM1600 248h200l197 -66v398 l-131 65h-135l-131 -65v-332zM1600 616l123 62h151l123 -62v377l-123 -61h-151l-123 61v-377zM1600 1030l131 -65h135l131 65v127l-205 205h-108l-84 -64v-268z" />
<glyph unicode="&#x425;" horiz-adv-x="1590" d="M162 -67l119 239l151 76h154l59 -60l230 486l-51 114h-316v33h301l-244 547l-63 66h-131l-137 -140l-25 25l146 145l149 74h154l80 -78l256 -577l294 661l156 -78h133l137 140l-118 -240l-152 -76h-154l-55 53l-225 -499l10 -23h348v-33h-334l277 -618l63 -66h132 l137 140l24 -25l-151 -147l-144 -72h-153l-80 78l-246 555l-305 -638l-156 77h-133z" />
<glyph unicode="&#x426;" horiz-adv-x="1733" d="M256 1378l170 86l82 80l154 -151l139 -72l225 -74v-999h254v991l74 150l76 75l237 117l-141 -141l-70 -137v-410h133l82 -82v-188l-94 94h-121v-475l131 -66h5l155 -232l-158 -158h-225l-139 70l-227 -113l221 219h225l139 -70l119 60l-127 191h-205l-211 -69l-151 -75 l-221 146l-209 70h-158v1081zM596 244l199 -68l199 68v336l-132 65h-135l-131 -65v-336zM596 616l123 62h152l123 -62v377l-123 -61h-152l-123 61v-377zM596 1030l131 -65h135l132 65v193l-205 69l-133 66l-60 -58v-270z" />
<glyph unicode="&#x427;" horiz-adv-x="1805" d="M240 1362l270 180l301 -301v-211l131 -65h135l164 82v-1245h-32v270h-123l-152 -75l-149 148l-150 76v936l-205 205h-190zM711 1581l227 -113l139 70h226l180 -180l14 31l76 75l238 117l-142 -141l-69 -137v-1826l-176 176v1586l51 102l-178 91l-140 -70h-225zM811 182 l197 66h201v332l-132 65h-135l-131 -65v-398zM811 616l123 62h152l123 -62v377l-123 -61h-152l-123 61v-377z" />
<glyph unicode="&#x428;" horiz-adv-x="2091" d="M420 219v1165l158 158l270 -180h-37v-1114h183v1136l157 158l271 -180h-37v-1114h182v991l74 150l75 75l238 117l-141 -141l-70 -137v-410h133l82 -82v-188l-94 94h-121v-475l197 -99h-283l-209 -69l-80 -79l-151 150l-205 68l-133 -66l-80 -158l-156 156zM596 238 l64 -64l4 -2l59 -61l105 104h-50v430h-182v-407zM596 678h182v254h-182v-254zM596 965h182v397h-120l-62 -62v-335zM1170 238l131 -129l153 106h-102v430h-182v-407zM1170 678h182v254h-182v-254zM1170 965h182v397h-121l-61 -62v-335z" />
<glyph unicode="&#x429;" horiz-adv-x="2091" d="M420 219v1165l158 158l270 -180h-37v-1114h183v1136l157 158l271 -180h-37v-1114h182v991l74 150l75 75l238 117l-141 -141l-70 -137v-410h133l82 -82v-188l-94 94h-121v-475l197 -99h-39l133 -199l-158 -158h-225l-139 70l-228 -113l222 219h225l139 -70l119 60 l-127 191h-205l-209 -69l-80 -79l-151 150l-205 68l-133 -66l-80 -158l-156 156zM596 238l64 -64l4 -2l59 -61l105 104h-50v430h-182v-407zM596 678h182v254h-182v-254zM596 965h182v397h-120l-62 -62v-335zM1170 238l131 -129l153 106h-102v430h-182v-407zM1170 678h182 v254h-182v-254zM1170 965h182v397h-121l-61 -62v-335z" />
<glyph unicode="&#x42a;" horiz-adv-x="1661" d="M191 1456l243 82h150l149 -74l76 -78l146 -362v-776h129l53 -19v658l162 80l225 -152l76 -149v-451h-156l-137 -70l-150 -148l-151 75h-352l-342 -85l114 115l148 74l290 72h58v192l-70 68l-74 149v639l-131 66h-135l-151 -76zM1170 219l125 -41l129 64v188h-254v-211z M1170 463h254v182h-254v-182zM1170 678h254v51l-70 137l-61 62l-123 -62v-188z" />
<glyph unicode="&#x42b;" horiz-adv-x="2235" d="M348 659v220l74 219l72 147l147 148l146 71l16 -28l-141 -72l-140 -139l-71 -140l-70 -211v-210l70 -211l69 -140l160 -139l121 -72l211 -69h268v860h164l150 -74l75 -76l74 -149v-223l-74 -150l-149 -147l-215 -72l-25 -15v13h-272l-219 74l-129 71l-164 148l-74 147z M922 264v981l176 88v-819l-74 -149zM1313 47l186 123l68 137v279l-70 137l-67 68l-117 59v-803zM1356 1319l221 219h225l140 -70l227 113l-221 -219h-62v-1120l132 -66h133l137 139l-119 -239l-151 -76h-152l-168 84l156 154v1124h-131l-140 70z" />
<glyph unicode="&#x42c;" horiz-adv-x="1805" d="M348 659v220l74 219l72 147l147 148l146 71l16 -28l-141 -72l-140 -139l-71 -140l-70 -211v-210l70 -211l69 -140l160 -139l121 -72l211 -69h268v860h164l150 -74l75 -76l74 -149v-223l-74 -150l-149 -147l-215 -72l-25 -15v13h-272l-219 74l-129 71l-164 148l-74 147z M922 264v981l176 88v-819l-74 -149zM1313 47l186 123l68 137v279l-70 137l-67 68l-117 59v-803z" />
<glyph unicode="&#x42d;" horiz-adv-x="1446" d="M205 -22l297 196l291 74h201v196l-70 209l-64 64h-131l-77 -78l-173 170l168 84h154l80 -78l72 -147l41 -121v471l-70 209l-68 65l-137 70h-135l-152 -76l-170 170l244 82h150l149 -74l76 -75l72 -148l73 -219v-774h154l-88 -176h-510zM783 1581l227 -113l139 70h154 l221 -219l-227 113l-140 -70h-153zM1209 264v1082l102 -101l74 -149v-582l-74 -149z" />
<glyph unicode="&#x42e;" horiz-adv-x="2163" d="M281 1319l221 219h225l140 -70l227 113l-211 -209v-479h254v354l223 74l207 137v19l12 -7l72 72l158 -78l147 -147l72 -148l73 -219v-291l-73 -219l-72 -147l-147 -148l-158 -77l-76 77l-438 146v426h-254v-488l53 19h221l168 -84l-168 -167l-151 75h-209l-377 -94 l295 196l135 45v1143h-203l-139 70zM348 623v188l82 82h133v59l74 150l103 100v-688l-74 -149l-103 -101v453h-120zM883 750h254v110h-254v-110zM1313 266l254 -84v1237l-191 -127l-63 -20v-1006zM1600 166l55 -55l129 131l72 139l65 201l-127 63h-63l-131 -65v-414z M1600 616l123 62h79l123 -62v377l-123 -61h-79l-123 61v-377zM1600 1030l131 -65h63l125 63l-63 127l-140 211l-116 57v-393z" />
<glyph unicode="&#x42f;" horiz-adv-x="1733" d="M254 176h105l65 66l215 358l74 76l108 53l-251 115l-76 96l-74 147v224l76 151l156 78l151 -76l217 -145l76 -74l74 -149v-699l-84 111l-86 141l-136 60l-126 -127l-70 -213l-74 -217l-158 -157zM596 1024l68 -137l205 -135l82 41l-60 -60l103 -47v612l-201 134l-129 -66 l-68 -135v-207zM764 166l244 82h147l221 -74l295 -196l-376 94h-209l-152 -75zM998 1581l227 -113l139 70h225l222 -219l-228 113l-139 -70h-225zM1352 514v688l102 -100l74 -150v-59h133l82 -82v-188l-94 94h-121v-453l-102 101z" />
<glyph unicode="&#x430;" horiz-adv-x="1231" d="M342 877l166 165l82 -79l139 -72l31 -8l29 8l139 72l82 79l166 -165l-78 -78v-561l61 -62h105l-182 -181l-160 159v55l-191 -64l-147 -148l-160 79l-76 151v152l74 149l135 134zM453 379l67 -135l136 -68h65l201 68v549l-164 55l-176 -60h-107l260 -258l-24 -24l-131 133 l-127 -127v-133z" />
<glyph unicode="&#x431;" horiz-adv-x="1231" d="M223 143l197 99v645l346 139l-57 55l-152 305l314 156l77 -78l138 -69h137l-209 -105h-154l-141 140l-63 -33l514 -514v-740h-158l-211 -69l-154 -77l-77 77l-138 69h-209zM596 242l137 -68l66 -68l195 66v627l-201 200l-197 -131v-626z" />
<glyph unicode="&#x432;" d="M223 143l197 99v989l-80 158l305 77l154 76l235 -313l-438 -219v-183l193 64l139 72l82 79l82 -79l137 -70h137l-196 -98v-652h-158l-211 -69l-154 -77l-77 77l-138 69h-209zM516 1399l80 -160v-192l246 122l-197 263zM596 242l137 -68l66 -68l195 66v623l-132 65h-65 l-201 -67v-551z" />
<glyph unicode="&#x433;" horiz-adv-x="1160" d="M305 1104l138 -139h133l147 73l150 -75l225 -74v-309l-156 -78h-180l189 -189l215 -286l-11 -9l-10 -16l-139 70h-135l-148 -73l-143 71l-4 -2l-4 6l-224 73v310l156 78h180l-116 116l-146 217zM424 936l27 -51l141 -213l137 -137h62l131 65v270l-60 58l-135 -68h-151 l-148 74l2 2h-6zM525 166l59 -57l135 67h223l142 -92l-158 209l-209 209h-61l-131 -66v-270z" />
<glyph unicode="&#x434;" d="M223 143l197 99v651h158l211 70l153 77l78 -77l137 -70h209l-196 -98v-851l-72 -219l-150 -152l-157 -78l-78 78l-137 70h-209l209 104h151l150 -74l61 -63l127 127v135l-71 214v133l-193 -74l-139 -71l-82 -79l-82 79l-137 69h-138zM596 242l131 -66h66l201 78v541 l-138 67l-65 68l-195 -66v-622z" />
<glyph unicode="&#x435;" horiz-adv-x="1016" d="M223 143l197 99v647l307 80l144 71l235 -311l-510 -293v-194l131 -66h137l-202 -102l-82 -79l-82 79l-137 69h-138zM596 475l324 184l-201 269l-123 -62v-391z" />
<glyph unicode="&#x436;" horiz-adv-x="1733" d="M264 872l168 168l156 -77l219 -148l76 -149v-131h111v264l-78 78l94 94l94 -94l-78 -78v-264h111v131l76 149l219 148l155 77l168 -168l-176 -88l-141 144l-74 -49l19 -11l-70 -139v-350l70 -137l133 -133l131 65l16 -29l-299 -148l-153 153l-74 149v203h-111v-264 l78 -78l-94 -94l-94 94l78 78v264h-111v-203l-74 -149l-153 -153l-299 148l16 29l131 -65l133 133l70 137v350l-70 139l19 11l-74 49l-141 -144z" />
<glyph unicode="&#x437;" horiz-adv-x="1160" d="M223 965h209l148 73l151 -75l224 -74v-309l-91 -45h78l156 -78v-310l-223 -73l-152 -75l-147 73h-170l-105 -70l-16 29l219 145h223l135 -67l60 57v270l-131 66h-135l-148 -74l-180 90l180 90l144 -71l126 63v270l-59 58l-135 -68h-152z" />
<glyph unicode="&#x438;" d="M223 143l197 99v557l-61 61h-105l182 182l160 -159v-641l131 -66h66l201 68v551l-156 77l172 170l82 -79l137 -70h137l-196 -98v-557l61 -62h105l-183 -181l-159 159v55l-193 -64l-139 -71l-82 -79l-82 79l-137 69h-138z" />
<glyph unicode="&#x439;" d="M223 143l197 99v557l-61 61h-105l182 182l160 -159v-641l131 -66h66l201 68v551l-156 77l172 170l82 -79l137 -70h137l-196 -98v-557l61 -62h105l-183 -181l-159 159v55l-193 -64l-139 -71l-82 -79l-82 79l-137 69h-138zM557 1083l90 181l82 -84h131l138 139l-119 -240 l-156 -78z" />
<glyph unicode="&#x43a;" horiz-adv-x="1088" d="M254 573l96 99l70 137v135l-70 137l-69 70l24 25l74 -74l57 -117l58 117l147 147l238 117l-213 -211l-70 -209v-37l273 205l86 -88v-156l-152 -151l-197 -66l508 -653h-112l-406 541v-525h-176v557h-166zM596 684l187 64l67 133v61l-67 66l2 2l-189 -142v-184z" />
<glyph unicode="&#x43b;" horiz-adv-x="1231" d="M254 176h105l63 64l143 358l220 221l143 72l154 151l182 -182h-105l-61 -61v-557l197 -99h-138l-137 -69l-82 -79l-172 169l156 78v608l-115 -57l-139 -281l-74 -360l-158 -157z" />
<glyph unicode="&#x43c;" horiz-adv-x="1590" d="M254 176h105l63 64l143 358l449 451l88 -177l-76 -73v-299l258 387l156 155l182 -182h-104l-62 -61v-557l197 -99h-137l-137 -69l-82 -79l-172 171l157 76v583l-256 -383v-288l-75 -78l-89 -87l-88 175l76 74v600l-41 -43l-141 -283l-74 -360l-158 -157z" />
<glyph unicode="&#x43d;" d="M223 143l197 99v557l-61 61h-105l182 182l160 -159v-348h398v260l-132 65h-137l203 103l82 79l82 -79l137 -70h137l-196 -98v-557l61 -62h105l-183 -181l-159 159v348h-398v-260l156 -78l-172 -169l-82 79l-137 69h-138z" />
<glyph unicode="&#x43e;" d="M223 143l197 99v651h158l211 70l153 77l78 -77l137 -70h209l-196 -98v-652h-158l-211 -69l-154 -77l-77 77l-138 69h-209zM596 242l137 -68l66 -68l195 66v623l-138 67l-65 68l-195 -66v-622z" />
<glyph unicode="&#x43f;" d="M223 143l197 99v557l-61 61h-105l182 182l160 -159v-56l193 64l139 72l82 79l82 -79l137 -70h137l-196 -98v-557l61 -62h105l-183 -181l-159 159v641l-132 65h-65l-201 -67v-551l156 -78l-172 -169l-82 79l-137 69h-138z" />
<glyph unicode="&#x440;" d="M223 143l197 99v630l-92 185l190 -94l78 -80v-56l193 64l139 72l82 79l82 -79l137 -70h137l-196 -98v-652h-158l-211 -69l-154 -77l-51 52v-243l76 -153l-252 -168v658h-197zM596 242l137 -68l66 -68l195 66v623l-132 65h-65l-201 -67v-551z" />
<glyph unicode="&#x441;" horiz-adv-x="1016" d="M223 143l197 99v647l307 80l144 71l77 -77l138 -70h137l-209 -105h-154l-141 140l-123 -62v-624l131 -66h137l-202 -102l-82 -79l-82 79l-137 69h-138z" />
<glyph unicode="&#x442;" horiz-adv-x="1876" d="M223 143l197 99v557l-61 61h-105l182 182l160 -159v-56l193 64l139 72l82 79l160 -159v-56l192 64l139 72l82 79l82 -79l137 -70h138l-197 -98v-557l62 -62h104l-182 -181l-160 159v641l-131 65h-66l-200 -67v-551l155 -78l-172 -169l-82 79l-161 82l84 82v557l-132 65 h-65l-201 -67v-551l156 -78l-172 -169l-82 79l-137 69h-138z" />
<glyph unicode="&#x443;" horiz-adv-x="1231" d="M336 156l84 82v421l-72 215v152l72 72l4 6l72 72l24 -25l-67 -66v-61l69 -141l74 -219v-426l62 -62h59l137 139l25 -24l-299 -296l-82 79zM643 -327l211 142q66 97 101 149t41 59l69 282v211l-69 209l-154 229l176 88l80 -159l72 -291v-291l-74 -219l-72 -147l-145 -145 l-219 -145z" />
<glyph unicode="&#x444;" horiz-adv-x="1733" d="M223 893h138l137 70l82 79l82 -79l260 -132v41l-92 185l190 -94l78 -80v-52l260 132l82 79l82 -79l137 -70h137l-196 -98v-652h-156l-295 -146l-51 52v-243l76 -153l-252 -168v564l-51 -52l-295 146h-156v652zM596 170l123 -61l66 65l137 68v553l-131 65h-64l-131 -65 v-625zM1098 242l137 -68l66 -65l123 61v625l-131 65h-64l-131 -65v-553z" />
<glyph unicode="&#x445;" horiz-adv-x="1375" d="M234 -67l118 239l156 78l135 -68l133 264l-26 56h-242v33h225l-96 188l-67 68l-138 69h-106l178 180l158 -77l76 -76l129 -260l210 422l82 -84h131l138 139l-119 -240l-156 -78l-135 68l-133 -264l27 -55h241v-33h-225l96 -189l68 -67l137 -70h107l-179 -179l-157 77 l-76 76l-129 260l-211 -421l-82 83h-131z" />
<glyph unicode="&#x446;" d="M223 143l197 99v557l-61 61h-105l182 182l160 -159v-641l131 -66h66l201 68v551l-156 77l172 170l82 -79l137 -70h137l-196 -98v-557l61 -62h105l-19 -20l70 -140l-78 -154l-156 -78l-166 82l90 179l82 -83h131l58 58l-55 111l-140 -136l-159 159v55l-193 -64l-139 -71 l-82 -79l-82 79l-137 69h-138z" />
<glyph unicode="&#x447;" horiz-adv-x="1375" d="M254 860l182 182l160 -159v-287l64 -64l334 -65v328l-156 77l172 170l82 -79l162 -82l-84 -82v-557l131 -66h137l-203 -102l-82 -79l-82 79l-137 69h-137l197 99v190l-351 72l-223 74v221l-61 61h-105z" />
<glyph unicode="&#x448;" horiz-adv-x="1876" d="M223 143l197 99v557l-61 61h-105l182 182l160 -159v-641l131 -66h66l201 68v551l-156 77l172 170l82 -79l162 -82l-84 -82v-557l131 -66h65l201 68v551l-156 77l172 170l82 -79l137 -70h138l-197 -98v-557l62 -62h104l-182 -181l-160 159v55l-193 -64l-139 -71l-82 -79 l-84 81l-75 78v55l-193 -64l-139 -71l-82 -79l-82 79l-137 69h-138z" />
<glyph unicode="&#x449;" horiz-adv-x="1876" d="M223 143l197 99v557l-61 61h-105l182 182l160 -159v-641l131 -66h66l201 68v551l-156 77l172 170l82 -79l162 -82l-84 -82v-557l131 -66h65l201 68v551l-156 77l172 170l82 -79l137 -70h138l-197 -98v-557l62 -62h104l-18 -20l69 -140l-78 -154l-155 -78l-166 82l90 179 l82 -83h131l57 58l-55 111l-139 -136l-160 159v55l-193 -64l-139 -71l-82 -79l-84 81l-75 78v55l-193 -64l-139 -71l-82 -79l-82 79l-137 69h-138z" />
<glyph unicode="&#x44a;" d="M275 662l77 155l146 74l6 6l148 145l81 -79l162 -82l-84 -82v-199l350 -211l160 -80l-235 -312l-154 75l-297 75v648l-123 61l-59 -57v-131l84 -82l-180 -90zM811 137l121 -31l197 265l-318 190v-424z" />
<glyph unicode="&#x44b;" horiz-adv-x="1446" d="M223 893h138l137 70l82 79l82 -79l202 -103h-137l-131 -65v-195l350 -211l160 -80l-235 -312l-154 75l-297 75v648zM596 137l121 -31l197 265l-318 190v-424zM973 877l170 86l82 79l82 -79l170 -86l-164 -82v-557l61 -62h105l-182 -181l-160 159v641z" />
<glyph unicode="&#x44c;" horiz-adv-x="1088" d="M223 893h138l137 70l82 79l82 -79l202 -103h-137l-131 -65v-195l350 -211l160 -80l-235 -312l-154 75l-297 75v648zM596 137l121 -31l197 265l-318 190v-424z" />
<glyph unicode="&#x44d;" horiz-adv-x="1160" d="M223 143l209 105h152l149 -74l66 -68l51 17v385l-131 65h-135l-148 -73l-180 90l176 88h224l194 -129v246l-137 67l-66 68l-204 -70l-13 33l215 70l154 77l78 -77l137 -70h209l-197 -98v-648l-225 -73l-154 -77l-77 77l-138 69h-209z" />
<glyph unicode="&#x44e;" horiz-adv-x="1590" d="M256 985l191 -94l78 -80v-276h182v358h157l211 70l154 77l78 -77l137 -70h209l-197 -98v-652h-157l-211 -69l-154 -77l-227 228v277h-182v-264l65 -64l170 -86l-182 -89l-230 153v649zM883 242l137 -68l66 -68l194 66v623l-137 67l-66 68l-194 -66v-622z" />
<glyph unicode="&#x44f;" horiz-adv-x="1231" d="M254 176h105l63 64l68 202l-68 66l-74 149v152l76 152l160 79l147 -149l191 -64v56l160 159l182 -182h-105l-61 -61v-557l197 -99h-138l-137 -69l-82 -79l-172 169l156 78v551l-37 12l-219 -436l-72 -217l-158 -157zM453 524l65 -63l125 -64l211 418l-133 45h-65 l-136 -67l-67 -136v-133z" />
<glyph unicode="&#x2000;" horiz-adv-x="1020" />
<glyph unicode="&#x2001;" horiz-adv-x="2040" />
<glyph unicode="&#x2002;" horiz-adv-x="1020" />
<glyph unicode="&#x2003;" horiz-adv-x="2040" />
<glyph unicode="&#x2004;" horiz-adv-x="680" />
<glyph unicode="&#x2005;" horiz-adv-x="510" />
<glyph unicode="&#x2006;" horiz-adv-x="340" />
<glyph unicode="&#x2007;" horiz-adv-x="340" />
<glyph unicode="&#x2008;" horiz-adv-x="255" />
<glyph unicode="&#x2009;" horiz-adv-x="408" />
<glyph unicode="&#x200a;" horiz-adv-x="113" />
<glyph unicode="&#x2010;" horiz-adv-x="1805" d="M420 645v105h1251v-105h-1251z" />
<glyph unicode="&#x2011;" horiz-adv-x="1805" d="M420 645v105h1251v-105h-1251z" />
<glyph unicode="&#x2012;" horiz-adv-x="1805" d="M420 645v105h1251v-105h-1251z" />
<glyph unicode="&#x2013;" horiz-adv-x="1578" d="M420 645v105h1024v-105h-1024z" />
<glyph unicode="&#x2014;" horiz-adv-x="2602" d="M420 645v105h2048v-105h-2048z" />
<glyph unicode="&#x202f;" horiz-adv-x="408" />
<glyph unicode="&#x205f;" horiz-adv-x="510" />
<glyph unicode="&#x20a7;" horiz-adv-x="1948" d="M293 0v33h68l88 43l43 88v1210l-43 88l-88 43h-68v33h647l221 -74l78 -75l74 -150v-223l-74 -150l-78 -75l-221 -74h-272v-553l43 -88l88 -43h68v-33h-574zM668 750h266l135 67l68 135v351l-68 135l-135 67h-266v-755zM1368 1004v32h127v348l176 177v-525h271v-32h-271 v-699l70 -209l64 -63h61l135 67l70 140l28 -17l-73 -147l-152 -76h-82l-4 2l-143 72l-76 78l-74 221v631h-127z" />
<glyph unicode="&#x20ac;" horiz-adv-x="1445" d="M-26 562l52 105h102v111h-119l53 105h66q6 269 201 460q196 191 465 191q277 0 477 -201v-167h-178v177h120q-179 156 -415 158l-283 -142l-140 -141l-106 -210v-125h769l-53 -105h-716v-111h661l-53 -105h-608v-125l106 -210l140 -141l283 -141q234 1 414 157h-119v177 h178v-167q-200 -200 -477 -200q-271 0 -465 190q-195 191 -201 460h-154z" />
<glyph unicode="&#x2126;" horiz-adv-x="1733" d="M348 0v446l33 3l41 -252l96 -95l90 -47l109 -20l61 59v60l-213 211l-71 147l-74 219v148l72 290l73 148l150 147l221 74h148l221 -74l149 -147l74 -148l72 -290v-148l-74 -219l-72 -147l-73 -74l-140 -137v-60l62 -59l192 39l62 41l35 51l47 283l32 -3v-446h-381l-81 82 v84l4 4l141 213l70 209v354l-70 283l-139 209l-138 67h-135l-137 -67l-139 -209l-70 -283v-354l70 -209l145 -217v-84l-4 -6l-78 -76v-1l-8 1h-373z" />
<glyph unicode="&#x2205;" horiz-adv-x="1661" d="M277 659v148l73 221l150 150l293 73h151l80 -20l119 235h109l-132 -260l113 -28l150 -150l73 -221v-148l-73 -221l-150 -149l-293 -74h-147l-148 37l-127 -252h-108l137 276l-47 13l-150 149zM453 664l69 -209l76 -76l404 805l-68 35h-135l-137 -70l-140 -137l-69 -209 v-139zM674 311l125 -63h135l137 69l140 138l69 209v139l-69 209l-125 123z" />
<glyph unicode="&#x221e;" horiz-adv-x="1518" d="M277 655v154l75 154l226 73h223l109 -108l16 33l151 75h224l149 -73l78 -80v-154l-76 -154l-225 -73h-223l-109 108l-16 -32l-152 -76h-223l-149 73zM453 666l65 -131h199l64 65l69 137v135l-65 132h-197l-135 -203v-135zM955 666l65 -131h199l63 65l70 137v135l-66 132 h-198l-64 -66l-69 -137v-135z" />
<glyph unicode="&#x2264;" horiz-adv-x="1805" d="M398 948l1273 600v-108l-1052 -492l1052 -491v-109zM420 72v104h1251v-104h-1251z" />
<glyph unicode="&#x2302;" horiz-adv-x="1446" d="M420 0v596l447 446l446 -446v-596h-893zM525 104h684v480l-342 342l-342 -342v-480z" />
<glyph unicode="&#x25fc;" horiz-adv-x="1105" d="M0 0v1105h1105v-1105h-1105z" />
<glyph horiz-adv-x="1518" />
<glyph horiz-adv-x="1518" />
</font>
</defs>
</svg>
